<svg xmlns="http://www.w3.org/2000/svg" width="18" height="17" viewBox="0 0 18 17" fill="none">
<path d="M1.68536 0C1.53614 0 1.39304 0.0597023 1.28752 0.165973C1.18201 0.272244 1.12273 0.416377 1.12273 0.566667C1.12273 0.716956 1.18201 0.86109 1.28752 0.96736C1.39304 1.07363 1.53614 1.13333 1.68536 1.13333H2.52931L0.0841089 7.04367C0.0235482 7.18875 -0.00486852 7.34539 0.00083926 7.50267C0.0364091 8.37964 0.407331 9.20879 1.036 9.81663C1.66466 10.4245 2.50237 10.7639 3.37383 10.7639C4.24529 10.7639 5.08299 10.4245 5.71166 9.81663C6.34032 9.20879 6.71125 8.37964 6.74682 7.50267C6.75217 7.3453 6.72337 7.18866 6.66242 7.04367L4.21721 1.13333H8.43697V12.4667H4.49853C3.90165 12.4667 3.32922 12.7055 2.90716 13.1306C2.48511 13.5556 2.248 14.1322 2.248 14.7333C2.248 15.3345 2.48511 15.911 2.90716 16.3361C3.32922 16.7612 3.90165 17 4.49853 17H13.5007C14.0975 17 14.67 16.7612 15.092 16.3361C15.5141 15.911 15.7512 15.3345 15.7512 14.7333C15.7512 14.1322 15.5141 13.5556 15.092 13.1306C14.67 12.7055 14.0975 12.4667 13.5007 12.4667H9.56223V1.13333H13.782L11.3368 7.04367C11.2762 7.18874 11.2478 7.34539 11.2535 7.50267C11.2891 8.37964 11.66 9.20879 12.2887 9.81663C12.9173 10.4245 13.755 10.7639 14.6265 10.7639C15.498 10.7639 16.3357 10.4245 16.9643 9.81663C17.593 9.20879 17.9639 8.37964 17.9995 7.50267C18.0049 7.3453 17.9761 7.18865 17.9151 7.04367L15.4699 1.13333H16.3138C16.4631 1.13333 16.6062 1.07363 16.7117 0.96736C16.8172 0.86109 16.8765 0.716956 16.8765 0.566667C16.8765 0.416377 16.8172 0.272244 16.7117 0.165973C16.6062 0.0597023 16.4631 0 16.3138 0H1.68536ZM3.37326 9.63333C2.87428 9.63327 2.38946 9.46627 1.99494 9.15856C1.60042 8.85086 1.31855 8.41989 1.19362 7.93333H5.55291C5.42797 8.41989 5.14611 8.85086 4.75159 9.15856C4.35707 9.46627 3.87225 9.63327 3.37326 9.63333ZM3.37326 2.04L5.34248 6.8H1.40405L3.37326 2.04ZM4.49853 13.6H13.5007C13.7991 13.6 14.0853 13.7194 14.2964 13.9319C14.5074 14.1445 14.6259 14.4328 14.6259 14.7333C14.6259 15.0339 14.5074 15.3222 14.2964 15.5347C14.0853 15.7473 13.7991 15.8667 13.5007 15.8667H4.49853C4.20009 15.8667 3.91388 15.7473 3.70285 15.5347C3.49182 15.3222 3.37326 15.0339 3.37326 14.7333C3.37326 14.4328 3.49182 14.1445 3.70285 13.9319C3.91388 13.7194 4.20009 13.6 4.49853 13.6ZM16.5952 6.8H12.6567L14.6259 2.04L16.5952 6.8ZM12.4463 7.93333H16.8056C16.6812 8.4204 16.3996 8.85198 16.005 9.16015C15.6104 9.46832 15.1253 9.63557 14.6259 9.63557C14.1266 9.63557 13.6415 9.46832 13.2469 9.16015C12.8523 8.85198 12.5706 8.4204 12.4463 7.93333Z" fill="#B5B8BC"/>
</svg>