<svg width="18" height="25" viewBox="0 0 18 25" fill="none" xmlns="http://www.w3.org/2000/svg">
<g clip-path="url(#clip0_419_1604)">
<path d="M4.34498 24.5C6.74234 24.5 8.68802 22.708 8.68802 20.5V16.5H4.34498C1.94763 16.5 0.00195312 18.292 0.00195312 20.5C0.00195312 22.708 1.94763 24.5 4.34498 24.5Z" fill="#0ACF83"/>
<path d="M0.00195312 12.5C0.00195312 10.292 1.94763 8.5 4.34498 8.5H8.68802V16.5H4.34498C1.94763 16.5 0.00195312 14.708 0.00195312 12.5Z" fill="#A259FF"/>
<path d="M0.00146484 4.5C0.00146484 2.292 1.94714 0.5 4.3445 0.5H8.68753V8.5H4.3445C1.94714 8.5 0.00146484 6.708 0.00146484 4.5Z" fill="#F24E1E"/>
<path d="M8.68799 0.5H13.031C15.4284 0.5 17.3741 2.292 17.3741 4.5C17.3741 6.708 15.4284 8.5 13.031 8.5H8.68799V0.5Z" fill="#FF7262"/>
<path d="M17.3741 12.5C17.3741 14.708 15.4284 16.5 13.031 16.5C10.6337 16.5 8.68799 14.708 8.68799 12.5C8.68799 10.292 10.6337 8.5 13.031 8.5C15.4284 8.5 17.3741 10.292 17.3741 12.5Z" fill="#1ABCFE"/>
</g>
<defs>
<clipPath id="clip0_419_1604">
<rect width="17.3756" height="24" fill="white" transform="translate(0 0.5)"/>
</clipPath>
</defs>
</svg>
