<svg width="25" height="23" viewBox="0 0 25 23" fill="none" xmlns="http://www.w3.org/2000/svg">
<path fill-rule="evenodd" clip-rule="evenodd" d="M12.3755 0C5.74549 0 0.375488 5.14625 0.375488 11.5C0.375488 16.5887 3.81049 20.8869 8.58049 22.4106C9.18049 22.5112 9.40549 22.1663 9.40549 21.8644C9.40549 21.5913 9.39049 20.6856 9.39049 19.7225C6.37549 20.2544 5.59549 19.0181 5.35549 18.3712C5.22049 18.0406 4.63549 17.02 4.12549 16.7469C3.70549 16.5312 3.10549 15.9994 4.11049 15.985C5.05549 15.9706 5.73049 16.8187 5.95549 17.1637C7.03549 18.9031 8.76049 18.4144 9.45049 18.1125C9.55549 17.365 9.87049 16.8619 10.2155 16.5744C7.54549 16.2869 4.75549 15.295 4.75549 10.8962C4.75549 9.64563 5.22049 8.61062 5.98549 7.80562C5.86549 7.51813 5.44549 6.33937 6.10549 4.75812C6.10549 4.75812 7.11049 4.45625 9.40549 5.93688C10.3655 5.67813 11.3855 5.54875 12.4055 5.54875C13.4255 5.54875 14.4455 5.67813 15.4055 5.93688C17.7005 4.44188 18.7055 4.75812 18.7055 4.75812C19.3655 6.33937 18.9455 7.51813 18.8255 7.80562C19.5905 8.61062 20.0555 9.63125 20.0555 10.8962C20.0555 15.3094 17.2505 16.2869 14.5805 16.5744C15.0155 16.9337 15.3905 17.6238 15.3905 18.7019C15.3905 20.24 15.3755 21.4762 15.3755 21.8644C15.3755 22.1663 15.6005 22.5256 16.2005 22.4106C20.9405 20.8869 24.3755 16.5744 24.3755 11.5C24.3755 5.14625 19.0055 0 12.3755 0Z" fill="#24292F"/>
</svg>
