<svg width="26" height="26" viewBox="0 0 26 26" fill="none" xmlns="http://www.w3.org/2000/svg">
<path d="M7.5687 16.8437C6.69995 16.4062 5.6687 16.2937 4.7312 16.6C3.7562 16.9187 2.96245 17.6937 2.58745 18.65C2.27495 19.4375 2.2812 20.2937 2.26245 21.125C2.23745 21.9562 2.16245 22.8 1.7187 23.525C1.5937 23.725 1.44995 23.9125 1.28745 24.0812C1.1937 24.175 1.09995 24.2687 0.999954 24.35C0.981204 24.3687 0.837454 24.4687 0.843704 24.4812C0.849954 24.4937 0.912454 24.5125 0.924954 24.5125C0.987454 24.5375 1.04995 24.5562 1.11245 24.575C1.6437 24.7312 2.1937 24.825 2.7437 24.8812C3.5812 24.9625 4.43745 24.9312 5.26245 24.7625C6.24995 24.5625 7.18745 24.15 7.98745 23.5312C8.2062 23.3625 8.4187 23.175 8.61245 22.9812C9.41245 22.1812 9.77495 21.0062 9.66245 19.8875C9.6187 19.4562 9.5062 19.0375 9.32495 18.6562" stroke="#333333" stroke-width="1.3" stroke-miterlimit="10" stroke-linecap="round" stroke-linejoin="round"/>
<path d="M8.33745 15.4999L7.5437 16.8875C7.5437 16.8875 7.8312 17.425 8.33745 17.9312C8.9062 18.5062 9.3187 18.6625 9.3187 18.6625L11 17.7437" stroke="#333333" stroke-width="1.3" stroke-miterlimit="10" stroke-linecap="round" stroke-linejoin="round"/>
<path d="M10.9999 17.7438C17.0249 14.5 26.3062 2.43751 25.0374 1.16876C23.9499 0.0812557 11.7062 9.18126 8.4624 15.2063" stroke="#333333" stroke-width="1.3" stroke-miterlimit="10" stroke-linecap="round" stroke-linejoin="round"/>
<path d="M4.98111 18.3687C4.53111 18.6437 4.18736 19.0687 4.01236 19.575C3.85611 20.0312 3.84986 20.525 3.86236 21.0187" stroke="#333333" stroke-width="1.3" stroke-miterlimit="10" stroke-linecap="round" stroke-linejoin="round"/>
</svg>
