<svg width="26" height="24" viewBox="0 0 26 24" fill="none" xmlns="http://www.w3.org/2000/svg">
<path d="M7.56895 15.8437C6.7002 15.4062 5.66895 15.2937 4.73145 15.6C3.75645 15.9187 2.9627 16.6937 2.5877 17.65C2.2752 18.4375 2.28145 19.2937 2.2627 20.125C2.2377 20.9562 2.1627 21.8 1.71895 22.525C1.59395 22.725 1.4502 22.9125 1.2877 23.0812C1.19395 23.175 1.1002 23.2687 1.0002 23.35C0.981448 23.3687 0.837698 23.4687 0.843948 23.4812C0.850198 23.4937 0.912698 23.5125 0.925198 23.5125C0.987698 23.5375 1.0502 23.5562 1.1127 23.575C1.64395 23.7312 2.19395 23.825 2.74395 23.8812C3.58145 23.9625 4.4377 23.9312 5.2627 23.7625C6.2502 23.5625 7.1877 23.15 7.9877 22.5312C8.20645 22.3625 8.41895 22.175 8.6127 21.9812C9.4127 21.1812 9.7752 20.0062 9.6627 18.8875C9.61895 18.4562 9.50645 18.0375 9.3252 17.6562" fill="#333333"/>
<path d="M11.0004 16.7438C17.0254 13.5 26.3066 1.43751 25.0379 0.168756C23.9504 -0.918744 11.7066 8.18126 8.46289 14.2063" fill="#333333"/>
<path d="M4.98135 17.3687C4.53135 17.6437 4.1876 18.0687 4.0126 18.575C3.85635 19.0312 3.8501 19.525 3.8626 20.0187" stroke="#E2E1F7" stroke-miterlimit="10" stroke-linecap="round" stroke-linejoin="round"/>
</svg>
