<svg width="44" height="27" viewBox="0 0 44 27" fill="none" xmlns="http://www.w3.org/2000/svg">
<path d="M17.1551 20.0126H8.10027L6.25034 25.7571C6.22967 25.8613 6.17077 25.9541 6.08519 26.0171C5.99962 26.0802 5.89357 26.109 5.78786 26.0978H1.21175C0.943995 26.0978 0.870972 25.9518 0.943995 25.6597L8.78181 3.1929C8.85484 2.94949 8.92786 2.73042 9.02522 2.43833C9.12319 1.91666 9.17208 1.38695 9.17127 0.856161C9.16398 0.795199 9.17999 0.733734 9.2161 0.68408C9.25221 0.634427 9.30576 0.600254 9.366 0.588409H15.6703C15.8407 0.588409 15.9624 0.661432 15.9868 0.783138L24.8713 25.7327C24.9443 26.0005 24.8713 26.1222 24.6278 26.1222H19.5406C19.4545 26.1305 19.3683 26.1082 19.2971 26.0592C19.2259 26.0102 19.1742 25.9377 19.1511 25.8544L17.1551 20.0126ZM9.51204 15.1687H15.6947C15.5486 14.6575 15.3539 14.049 15.1348 13.4161C14.9158 12.7833 14.6967 12.053 14.4776 11.3228C14.2586 10.5926 14.0151 9.83801 13.7717 9.08344C13.5283 8.32886 13.3092 7.62297 13.1145 6.91708C12.9198 6.21119 12.7494 5.60267 12.579 5.01848H12.5303C12.3116 6.07937 12.0353 7.12758 11.7027 8.15848C11.3376 9.32685 10.9725 10.5439 10.5831 11.761C10.2666 13.0023 9.87716 14.1464 9.51204 15.1687Z" fill="#9999FF"/>
<path d="M39.3055 17.7732H31.5894C31.6815 18.5413 31.9389 19.2804 32.344 19.9395C32.7741 20.5956 33.3939 21.105 34.1208 21.4C35.1047 21.8208 36.1666 22.0282 37.2365 22.0085C38.0865 21.993 38.9335 21.9034 39.768 21.7408C40.5103 21.6436 41.2379 21.4556 41.9343 21.1809C42.056 21.0836 42.1291 21.1323 42.1291 21.3757V25.0998C42.1248 25.1988 42.1084 25.2969 42.0804 25.3919C42.0364 25.4602 41.9783 25.5183 41.91 25.5623C41.1315 25.9042 40.314 26.1494 39.4759 26.2926C38.3373 26.5115 37.1787 26.6094 36.0194 26.5847C34.1695 26.5847 32.6117 26.2926 31.346 25.7327C30.1549 25.2157 29.1037 24.4232 28.279 23.4203C27.5083 22.4826 26.9369 21.3976 26.5995 20.2316C25.8862 17.8033 25.9201 15.2165 26.6968 12.8076C27.085 11.5889 27.7049 10.4566 28.5224 9.4729C29.3274 8.5002 30.3317 7.71164 31.4677 7.1605C32.6117 6.60065 33.9748 6.40592 35.5326 6.40592C36.8305 6.37581 38.119 6.6335 39.3055 7.1605C40.3027 7.5928 41.1798 8.26109 41.8613 9.10778C42.5083 9.93914 43.0028 10.8786 43.3218 11.8827C43.6313 12.842 43.7874 13.8442 43.7842 14.8523C43.7842 15.4365 43.7599 15.9476 43.7356 16.4101C43.7112 16.8726 43.6625 17.2134 43.6382 17.4324C43.6275 17.5167 43.5875 17.5946 43.5252 17.6524C43.4629 17.7103 43.3823 17.7444 43.2974 17.7489C43.1514 17.7489 42.8836 17.7732 42.4942 17.7975C42.0255 17.8508 41.554 17.8751 41.0824 17.8706C40.5225 17.8706 39.9384 17.7732 39.3055 17.7732ZM31.5894 14.2194H36.7253C37.3582 14.2194 37.8207 14.2194 38.1128 14.1951C38.3128 14.1784 38.5054 14.1114 38.6726 14.0003V13.7569C38.6736 13.4507 38.6243 13.1465 38.5266 12.8563C38.3135 12.1903 37.8896 11.6116 37.3188 11.2076C36.7479 10.8037 36.0612 10.5963 35.3622 10.6169C34.7016 10.5799 34.0444 10.7348 33.47 11.0631C32.8955 11.3914 32.4283 11.8789 32.1249 12.4668C31.8409 13.0134 31.6594 13.6074 31.5894 14.2194Z" fill="#9999FF"/>
</svg>
