<svg width="135" height="27" viewBox="0 0 135 27" fill="none" xmlns="http://www.w3.org/2000/svg">
<path d="M17.1551 20.2087H8.10027L6.25034 25.9532C6.22967 26.0575 6.17077 26.1502 6.08519 26.2133C5.99962 26.2763 5.89357 26.3051 5.78786 26.294H1.21175C0.943995 26.294 0.870972 26.1479 0.943995 25.8558L8.78181 3.38904C8.85484 3.14563 8.92786 2.92656 9.02522 2.63447C9.12319 2.11279 9.17208 1.58309 9.17127 1.0523C9.16398 0.991336 9.17999 0.92987 9.2161 0.880217C9.25221 0.830563 9.30576 0.79639 9.366 0.784546H15.6703C15.8407 0.784546 15.9624 0.857569 15.9868 0.979274L24.8713 25.9289C24.9443 26.1966 24.8713 26.3183 24.6278 26.3183H19.5406C19.4545 26.3266 19.3683 26.3043 19.2971 26.2553C19.2259 26.2064 19.1742 26.1339 19.1511 26.0506L17.1551 20.2087ZM9.51204 15.3648H15.6947C15.5486 14.8537 15.3539 14.2451 15.1348 13.6123C14.9158 12.9794 14.6967 12.2492 14.4776 11.519C14.2586 10.7887 14.0151 10.0341 13.7717 9.27957C13.5283 8.525 13.3092 7.81911 13.1145 7.11322C12.9198 6.40733 12.7494 5.7988 12.579 5.21462H12.5303C12.3116 6.27551 12.0353 7.32372 11.7027 8.35461C11.3376 9.52299 10.9725 10.74 10.5831 11.9571C10.2666 13.1985 9.87716 14.3425 9.51204 15.3648Z" fill="#9999FF"/>
<path d="M39.3055 17.9693H31.5894C31.6815 18.7375 31.9389 19.4766 32.344 20.1357C32.7741 20.7917 33.3939 21.3012 34.1208 21.5961C35.1047 22.0169 36.1666 22.2243 37.2365 22.2047C38.0865 22.1891 38.9335 22.0995 39.768 21.9369C40.5103 21.8397 41.2379 21.6517 41.9343 21.3771C42.056 21.2797 42.1291 21.3284 42.1291 21.5718V25.296C42.1248 25.395 42.1084 25.4931 42.0804 25.5881C42.0364 25.6564 41.9783 25.7145 41.91 25.7585C41.1315 26.1003 40.314 26.3456 39.4759 26.4887C38.3373 26.7077 37.1787 26.8056 36.0194 26.7808C34.1695 26.7808 32.6117 26.4887 31.346 25.9289C30.1549 25.4119 29.1037 24.6193 28.279 23.6165C27.5083 22.6787 26.9369 21.5937 26.5995 20.4278C25.8862 17.9994 25.9201 15.4126 26.6968 13.0038C27.085 11.785 27.7049 10.6527 28.5224 9.66903C29.3274 8.69634 30.3317 7.90777 31.4677 7.35663C32.6117 6.79679 33.9748 6.60206 35.5326 6.60206C36.8305 6.57194 38.119 6.82964 39.3055 7.35663C40.3027 7.78894 41.1798 8.45723 41.8613 9.30392C42.5083 10.1353 43.0028 11.0748 43.3218 12.0788C43.6313 13.0381 43.7874 14.0404 43.7842 15.0484C43.7842 15.6326 43.7599 16.1438 43.7356 16.6062C43.7112 17.0687 43.6625 17.4095 43.6382 17.6286C43.6275 17.7129 43.5875 17.7907 43.5252 17.8486C43.4629 17.9064 43.3823 17.9405 43.2974 17.945C43.1514 17.945 42.8836 17.9693 42.4942 17.9937C42.0255 18.0469 41.554 18.0713 41.0824 18.0667C40.5225 18.0667 39.9384 17.9693 39.3055 17.9693ZM31.5894 14.4155H36.7253C37.3582 14.4155 37.8207 14.4155 38.1128 14.3912C38.3128 14.3745 38.5054 14.3075 38.6726 14.1965V13.9531C38.6736 13.6469 38.6243 13.3426 38.5266 13.0524C38.3135 12.3864 37.8896 11.8077 37.3188 11.4038C36.7479 10.9998 36.0612 10.7925 35.3622 10.8131C34.7016 10.776 34.0444 10.931 33.47 11.2592C32.8955 11.5875 32.4283 12.075 32.1249 12.663C31.8409 13.2096 31.6594 13.8036 31.5894 14.4155Z" fill="#9999FF"/>
<rect x="54.0565" y="6.8158" width="80" height="14" rx="4" fill="#ECECEC"/>
<rect x="53.7843" y="6.7533" width="80" height="14" rx="4" fill="#7F76E7" fill-opacity="0.5"/>
</svg>
