<svg width="118" height="27" viewBox="0 0 118 27" fill="none" xmlns="http://www.w3.org/2000/svg">
<path fill-rule="evenodd" clip-rule="evenodd" d="M23.0111 3.13709C23.0111 1.65724 24.0367 0.784546 25.366 0.784546C26.7715 0.784546 27.7211 1.73309 27.7211 3.13709C27.7211 4.65493 26.7336 5.48975 25.3281 5.48975C23.9608 5.48975 23.0111 4.65493 23.0111 3.13709ZM4.41134 26.5506L6.23452 19.6555H6.23477H13.6035L15.5026 26.5884C15.5404 26.7402 15.6546 26.7845 15.8442 26.7845H19.6426C19.8326 26.7845 19.8705 26.6705 19.8326 26.481L12.5019 1.65797C12.4638 1.46817 12.3878 1.4303 12.2359 1.4303H7.41228C7.29808 1.4303 7.22204 1.50615 7.22204 1.65797C7.18413 2.79632 7.10809 3.15553 6.99414 3.57289L0.46104 26.443C0.423383 26.7087 0.46104 26.7845 0.68857 26.7845H4.06974C4.29739 26.7845 4.37356 26.7402 4.41134 26.5506ZM11.9272 13.1283L11.9273 13.1285C12.2125 14.2145 12.4691 15.1906 12.6539 15.9185H7.22228L7.28414 15.6863C8.22373 12.1563 9.39782 7.74581 9.88112 5.10978H9.91915C10.3255 7.03251 11.216 10.4212 11.9272 13.1282V13.1283ZM23.5348 8.0994C23.3449 8.0994 23.269 8.17525 23.269 8.36506V26.481C23.269 26.6705 23.3449 26.7845 23.5728 26.7845H27.1467C27.3746 26.7845 27.4126 26.7087 27.4126 26.519V8.36506C27.4126 8.17525 27.3367 8.0994 27.1467 8.0994H23.5348Z" fill="#DF6D12"/>
<rect x="37.7211" y="6.68463" width="80" height="14" rx="4" fill="#ECECEC"/>
<rect x="38" y="6.88446" width="60" height="14" rx="4" fill="#7F76E7" fill-opacity="0.5"/>
</svg>
