<svg width="28" height="27" viewBox="0 0 28 27" fill="none" xmlns="http://www.w3.org/2000/svg">
<path fill-rule="evenodd" clip-rule="evenodd" d="M22.7855 2.94095C22.7855 1.4611 23.811 0.588409 25.1404 0.588409C26.5458 0.588409 27.4954 1.53695 27.4954 2.94095C27.4954 4.45879 26.5079 5.29362 25.1025 5.29362C23.7351 5.29362 22.7855 4.45879 22.7855 2.94095ZM4.18567 26.3545L6.00884 19.4593H6.00909H13.3779L15.277 26.3923C15.3147 26.5441 15.4289 26.5884 15.6186 26.5884H19.4169C19.6069 26.5884 19.6448 26.4743 19.6069 26.2849L12.2763 1.46183C12.2381 1.27203 12.1621 1.23416 12.0102 1.23416H7.1866C7.07241 1.23416 6.99636 1.31001 6.99636 1.46183C6.95846 2.60018 6.88241 2.9594 6.76846 3.37675L0.235362 26.2469C0.197705 26.5126 0.235362 26.5884 0.462893 26.5884H3.84406C4.07172 26.5884 4.14789 26.5441 4.18567 26.3545ZM11.7015 12.9321L11.7016 12.9324C11.9869 14.0183 12.2434 14.9945 12.4282 15.7223H6.9966L7.05847 15.4901C7.99806 11.9602 9.17214 7.54967 9.65545 4.91364H9.69347C10.0999 6.83637 10.9903 10.225 11.7015 12.932V12.9321ZM23.3091 7.90327C23.1192 7.90327 23.0433 7.97912 23.0433 8.16892V26.2849C23.0433 26.4743 23.1192 26.5884 23.3471 26.5884H26.921C27.1489 26.5884 27.1869 26.5126 27.1869 26.3229V8.16892C27.1869 7.97912 27.111 7.90327 26.921 7.90327H23.3091Z" fill="#DF6D12"/>
</svg>
