<svg width="24" height="31" viewBox="0 0 24 31" fill="none" xmlns="http://www.w3.org/2000/svg">
<g clip-path="url(#clip0_116_199)">
<path d="M1.35605 0.900506C1.00757 1.13476 0.939387 1.30857 0.795448 2.30605C0.727266 2.78212 0.598478 3.39421 0.515145 3.66625C0.371206 4.12721 0.36363 4.22544 0.446963 4.97355C0.575751 6.19774 1.8712 13.1952 1.98484 13.3086C1.99999 13.3312 2.31817 12.9987 2.68181 12.5907C3.04545 12.1751 3.77272 11.4345 4.28787 10.9433L5.22726 10.0592V6.91562V3.77204L4.71969 2.91814C4.04545 1.79219 3.39393 1.08942 2.83333 0.885392C2.26514 0.673805 1.68939 0.673805 1.35605 0.900506Z" fill="black"/>
<path d="M20.3485 0.877831C19.7424 1.11209 19.1666 1.76196 18.3788 3.09194L18.0303 3.68136V6.89294V10.1121L18.9924 11.0264C19.5151 11.5327 20.2121 12.2431 20.5454 12.6058C20.8712 12.9761 21.1591 13.2708 21.1894 13.2708C21.2878 13.2783 22.4166 7.42191 22.6969 5.47229C22.8333 4.49748 22.8181 4.14987 22.5909 3.25818C22.5075 2.92569 22.3939 2.3665 22.3485 2.01133C22.2424 1.29345 22.1439 1.08942 21.7954 0.877831C21.4772 0.681356 20.8409 0.681356 20.3485 0.877831Z" fill="black"/>
<path d="M5.53786 7.08942C5.53028 8.57808 5.54544 9.79471 5.56816 9.79471C5.59089 9.79471 5.80301 9.64357 6.03786 9.46221C6.28028 9.28085 6.68937 9.01637 6.94695 8.87279L7.41665 8.61587L7.09089 7.82242C6.68937 6.84005 6.21968 5.78212 5.84089 4.99622L5.54544 4.39169L5.53786 7.08942Z" fill="black"/>
<path d="M17.1439 5.44962C16.6439 6.50755 15.947 8.14735 15.8712 8.44206C15.8333 8.60075 15.8788 8.65365 16.1894 8.82745C16.3939 8.9408 16.7955 9.20529 17.0833 9.41687L17.6136 9.79471L17.6364 8.47229C17.6439 7.74685 17.6439 6.54534 17.6364 5.81234L17.6136 4.47481L17.1439 5.44962Z" fill="black"/>
<path d="M7.12121 9.12972C6.41667 9.53022 4.82576 10.7997 4.25 11.4118L4.06061 11.6083L6.47727 11.5932L8.88636 11.5705L9.66667 10.2859C10.0985 9.57556 10.447 8.97858 10.4545 8.9408C10.4545 8.91057 9.79545 8.8879 9 8.8879H7.53788L7.12121 9.12972Z" fill="black"/>
<path d="M10.1136 10.1499C9.69697 10.8451 9.34848 11.4572 9.33333 11.5101C9.3106 11.5856 9.75757 11.6083 11.6288 11.6083C12.9015 11.6083 13.9318 11.5856 13.9167 11.5479C13.9015 11.5176 13.5379 10.9055 13.1061 10.1877L12.3258 8.8879H11.5985H10.8712L10.1136 10.1499Z" fill="black"/>
<path d="M12.8106 9.05415C12.8561 9.15239 13.2197 9.76448 13.6212 10.4144L14.3409 11.6083H16.7348L19.1288 11.6008L18.4848 10.9887C17.7273 10.2783 16.5076 9.3413 15.9848 9.07682C15.6288 8.89546 15.553 8.8879 14.1667 8.8879H12.7197L12.8106 9.05415Z" fill="black"/>
<path d="M2.98486 12.7191C2.58334 13.1725 2.21213 13.6033 2.15152 13.694C2.05304 13.8375 1.78031 15.961 1.83334 16.1877C1.84849 16.2481 2.06819 16.0819 2.38637 15.7796C2.68183 15.5 3.71213 14.5252 4.68182 13.6184C5.64395 12.7116 6.4394 11.9559 6.4394 11.9408C6.4394 11.9257 5.82576 11.9106 5.08334 11.9106H3.7197L2.98486 12.7191Z" fill="black"/>
<path d="M7.6591 12.0466C7.98486 12.296 9.6894 13.4219 9.79546 13.4673C9.85607 13.4899 10.1288 13.233 10.5 12.8023C10.8333 12.4169 11.1288 12.0542 11.1667 12.0013C11.2121 11.9333 10.8258 11.9106 9.34849 11.9106C7.53031 11.9106 7.48486 11.9106 7.6591 12.0466Z" fill="black"/>
<path d="M12.5606 12.6814C12.8939 13.1121 13.2121 13.4597 13.2727 13.4521C13.3257 13.4446 13.9015 13.097 14.5454 12.6814L15.7197 11.9106H13.8409H11.9621L12.5606 12.6814Z" fill="black"/>
<path d="M17.0454 12.2431C17.75 12.9156 21.356 16.2934 21.3788 16.2934C21.3939 16.2934 21.3485 15.7343 21.2803 15.0466L21.1591 13.8073L20.7879 13.369C20.5833 13.1272 20.197 12.704 19.9318 12.4244L19.4545 11.9106H18.0757H16.7045L17.0454 12.2431Z" fill="black"/>
<path d="M7.04544 13.097V14.1474L8.20453 15.3715L9.35605 16.5882L10.0985 16.5957C10.5076 16.5957 10.8333 16.5655 10.8182 16.5353C10.8106 16.4975 10.5606 15.8778 10.2803 15.1524L9.75756 13.8375L8.46211 12.9685C7.74999 12.4924 7.13635 12.0844 7.10605 12.0768C7.07574 12.0617 7.04544 12.5227 7.04544 13.097Z" fill="black"/>
<path d="M10.8182 12.9232L10.0833 13.7771L10.6288 15.1826L11.1742 16.5957H11.5909H12.0076L12.4848 15.2506C12.7424 14.5176 12.9545 13.8602 12.9545 13.7997C12.9469 13.6788 11.75 12.1297 11.6288 12.0844C11.5909 12.0768 11.2197 12.4471 10.8182 12.9232Z" fill="black"/>
<path d="M14.7121 12.9458C13.7651 13.5579 13.3182 13.898 13.2651 14.0264C13.2273 14.1322 13.0076 14.7519 12.7727 15.4018L12.356 16.5957H13.0909H13.8333L14.9848 15.3867L16.1363 14.17V13.1196C16.1363 12.5378 16.1212 12.0617 16.1136 12.0617C16.0985 12.0617 15.4697 12.4622 14.7121 12.9458Z" fill="black"/>
<path d="M5.53031 13.2557C4.8788 13.8678 3.8788 14.8124 3.29546 15.3564L2.24243 16.3539L4.01516 15.9232L5.78789 15.4849L6.26516 14.8577L6.74243 14.2305V13.1801C6.74243 12.6058 6.73486 12.1373 6.72728 12.1373C6.71213 12.1448 6.17425 12.6436 5.53031 13.2557Z" fill="black"/>
<path d="M16.4394 13.165L16.4469 14.2154L16.9015 14.8199C17.303 15.3564 17.3939 15.432 17.7121 15.5227C18.6288 15.772 20.9091 16.3463 20.9091 16.3312C20.9091 16.3161 20.0985 15.5453 19.1136 14.6234C18.1212 13.694 17.1136 12.7494 16.8788 12.5227L16.4394 12.1146V13.165Z" fill="black"/>
<path d="M6.48485 15.1071C6.25 15.4093 6.06061 15.6965 6.06061 15.7418C6.06061 15.8401 7.09849 17.6537 7.24243 17.8048C7.33333 17.8955 7.37879 17.8804 7.59091 17.6763C7.72727 17.5479 8.10606 17.2683 8.43182 17.0567L9.02273 16.6788L8.02273 15.636C7.4697 15.0617 6.99243 14.5856 6.96212 14.5705C6.93182 14.5554 6.71212 14.7972 6.48485 15.1071Z" fill="black"/>
<path d="M15.1742 15.6285L14.1742 16.694L14.606 16.9509C14.8409 17.0945 15.2197 17.3589 15.447 17.5479C15.6666 17.7292 15.8636 17.8728 15.8788 17.8652C15.947 17.7972 17.0454 15.6738 17.0454 15.6058C17.0454 15.4924 16.3333 14.563 16.25 14.563C16.2121 14.5705 15.7273 15.0466 15.1742 15.6285Z" fill="black"/>
<path d="M5.38635 15.9307L5.13635 15.9987L5.46211 16.165C6.14393 16.505 6.47726 17.427 6.18938 18.1297C6.1212 18.2809 6.0909 18.4093 6.1212 18.4093C6.1515 18.4018 6.34847 18.3111 6.56817 18.1977L6.96211 17.9937L6.3712 16.9887C6.04544 16.437 5.74999 15.961 5.71211 15.9232C5.67423 15.893 5.53029 15.893 5.38635 15.9307Z" fill="black"/>
<path d="M16.7651 16.8904C16.4621 17.4723 16.2121 17.9635 16.2121 17.9862C16.2121 18.0239 16.9242 18.4093 17 18.4093C17.0151 18.4093 16.9848 18.2506 16.9242 18.0542C16.8636 17.8652 16.8182 17.631 16.8182 17.5479C16.8182 16.966 17.2954 16.2935 17.8409 16.1121L18.1363 16.0063L17.8409 15.9232C17.6742 15.8778 17.4848 15.8401 17.4242 15.8401C17.356 15.8401 17.0909 16.2557 16.7651 16.8904Z" fill="black"/>
<path d="M3.46211 16.3841C3.17423 16.4597 3.17423 16.4673 3.21969 16.7469C3.24241 16.898 3.31059 17.1776 3.3712 17.3589L3.47726 17.6914V17.3741C3.48484 16.9887 3.5909 16.6864 3.80302 16.4597C3.98484 16.2708 3.93181 16.2632 3.46211 16.3841Z" fill="black"/>
<path d="M4.26513 16.437C3.77271 16.7469 3.64392 17.427 3.9621 18.039C4.29544 18.6587 4.88635 18.8703 5.44695 18.5756C6.13635 18.2053 6.17422 16.9811 5.50756 16.505C5.1818 16.2708 4.58332 16.2406 4.26513 16.437ZM5.09089 16.8753C5.25756 17.0265 5.26513 17.2607 5.09847 17.4421C4.84089 17.7292 4.31816 17.5176 4.31816 17.1247C4.31816 16.7695 4.80301 16.6108 5.09089 16.8753ZM5.79544 17.3136C5.79544 17.5025 5.49241 17.563 5.42422 17.3892C5.35604 17.2078 5.43938 17.1096 5.62877 17.1398C5.73483 17.1549 5.79544 17.2154 5.79544 17.3136Z" fill="black"/>
<path d="M17.8788 16.3766C17.2727 16.6184 16.9621 17.427 17.2273 18.0542C17.3939 18.4698 17.7576 18.7116 18.1894 18.7116C18.5076 18.7116 18.5985 18.6738 18.8636 18.4395C19.4167 17.9408 19.5227 17.034 19.0757 16.6184C18.75 16.3161 18.2803 16.2179 17.8788 16.3766ZM18.697 16.8678C18.9015 17.0113 18.9091 17.2305 18.7121 17.427C18.5303 17.6083 18.2045 17.6234 18.0151 17.4496C17.8333 17.2909 17.8409 17.0869 18.0303 16.898C18.2121 16.7166 18.4621 16.7015 18.697 16.8678ZM17.6894 17.3136C17.6894 17.4798 17.4545 17.563 17.3333 17.4421C17.2045 17.3136 17.3257 17.1096 17.5151 17.1398C17.6288 17.1549 17.6894 17.2154 17.6894 17.3136Z" fill="black"/>
<path d="M19.4318 16.6108C19.5606 16.8375 19.6212 17.0642 19.6288 17.3514L19.6364 17.767L19.7424 17.427C19.803 17.238 19.8712 16.9509 19.8939 16.7771C19.9394 16.4748 19.9394 16.4748 19.6364 16.3841C19.2273 16.2632 19.2273 16.2557 19.4318 16.6108Z" fill="black"/>
<path d="M2.14395 16.7317L1.74243 16.8451V18.8778V20.9181L1.96213 21.4698C2.32576 22.3615 3.42425 24.1902 3.4697 23.9786C3.47728 23.9181 3.31819 22.437 3.10607 20.6688C2.90152 18.9081 2.72728 17.2683 2.72728 17.0265C2.72728 16.5428 2.74243 16.5504 2.14395 16.7317Z" fill="black"/>
<path d="M20.5 16.762C20.4773 16.8602 20.4545 17.0869 20.4545 17.2758C20.4545 17.4647 20.2803 19.0592 20.0757 20.8199C19.8636 22.5806 19.7045 24.039 19.7273 24.0542C19.7803 24.1146 20.7045 22.6108 21.0454 21.9005L21.4015 21.1675L21.4242 19.0063L21.447 16.8451L21.1212 16.7544C20.9394 16.7015 20.7424 16.6486 20.6742 16.626C20.5909 16.6033 20.5303 16.6486 20.5 16.762Z" fill="black"/>
<path d="M8.75756 17.2229C7.74241 17.835 6.53029 19.1423 5.99241 20.2078L5.82574 20.5252L6.53029 19.9433C7.32574 19.2783 8.0909 18.7569 8.97726 18.2809L9.58332 17.9559H10.4848C11.303 17.9559 11.3788 17.9484 11.3257 17.8199C11.2954 17.7519 11.2045 17.5101 11.1212 17.2909L10.9621 16.898L10.1212 16.9055H9.28029L8.75756 17.2229Z" fill="black"/>
<path d="M11.4545 17.2834L11.6136 17.6688L11.7576 17.2985C11.8333 17.102 11.8939 16.9282 11.8939 16.9131C11.8939 16.9055 11.7576 16.898 11.5985 16.898H11.2954L11.4545 17.2834Z" fill="black"/>
<path d="M12.0757 17.3287C12 17.5705 11.9242 17.8123 11.9091 17.8577C11.8863 17.9333 12.0985 17.9559 12.7727 17.9559H13.6666L14.3485 18.3338C15.1742 18.7872 16.2197 19.5277 16.8712 20.1096C17.4091 20.5856 17.4242 20.495 16.9242 19.7091C16.2348 18.636 15.3788 17.7821 14.356 17.17C13.9091 16.898 13.8939 16.898 13.0606 16.898H12.2272L12.0757 17.3287Z" fill="black"/>
<path d="M20.0076 17.6688C19.803 18.3866 19.2879 19.7091 19.2045 19.7393C19.1515 19.762 18.6363 19.5504 18.0606 19.2708C17.4848 18.9987 16.8939 18.7191 16.75 18.6587L16.4848 18.5453L16.6818 18.8023C17.2121 19.4975 17.8788 20.7065 17.8788 20.9861C17.8788 21.0315 18.1136 21.3791 18.4015 21.7645C18.6894 22.1423 19.0379 22.6562 19.1742 22.898C19.3106 23.1474 19.4318 23.3136 19.447 23.2758C19.4545 23.238 19.606 22.0365 19.7727 20.6008C19.9394 19.165 20.0985 17.8501 20.1212 17.6688C20.1439 17.495 20.1439 17.3514 20.1288 17.3514C20.1136 17.3514 20.0606 17.495 20.0076 17.6688Z" fill="black"/>
<path d="M3.11364 17.8123C3.10607 17.903 3.59092 22.1272 3.72728 23.2078C3.74243 23.3136 3.84092 23.2003 4.06819 22.8224C4.24243 22.5353 4.56819 22.0516 4.80304 21.7494C5.03031 21.4547 5.33334 20.9484 5.46213 20.6234C5.75001 19.9358 6.03788 19.4295 6.44697 18.8778C6.61364 18.6662 6.73485 18.4849 6.7197 18.4849C6.70455 18.4849 6.08334 18.772 5.34849 19.1272C4.61364 19.4824 3.9697 19.7544 3.93182 19.7242C3.84092 19.6713 3.79546 19.5579 3.40152 18.4849C3.24243 18.0466 3.11364 17.7443 3.11364 17.8123Z" fill="black"/>
<path d="M3.79545 18.636C3.92424 18.9912 4.04545 19.301 4.07576 19.3312C4.10606 19.3539 4.2803 19.301 4.46212 19.2028L4.80303 19.0365L4.46212 18.8854C4.15151 18.7494 3.89394 18.5076 3.65909 18.1373C3.60606 18.0542 3.67424 18.2809 3.79545 18.636Z" fill="black"/>
<path d="M19.303 18.3791C19.1515 18.6209 18.9849 18.7645 18.7197 18.893L18.3409 19.0668L18.6818 19.2254C18.8636 19.3161 19.0303 19.3917 19.0455 19.3917C19.0833 19.3917 19.553 18.0919 19.5303 18.0693C19.5152 18.0542 19.4167 18.1977 19.303 18.3791Z" fill="black"/>
<path d="M9.13635 18.568C8.88635 18.6965 8.49998 18.9156 8.28029 19.0592C7.91665 19.2935 7.87877 19.3312 7.96968 19.4521C8.02271 19.5277 8.81817 20.495 9.73483 21.6134L11.4015 23.631L11.4242 22.369C11.4318 21.6738 11.4242 21.0919 11.4091 21.0768C11.3485 21.0088 11.0606 21.1373 10.8333 21.3262C10.5757 21.5453 10.5985 21.5605 9.86362 20.9484L9.31817 20.495V19.9509C9.31817 19.3388 9.30301 19.369 10.0303 18.9232C10.4318 18.6738 10.553 18.636 10.9697 18.636C11.3863 18.636 11.4394 18.6209 11.4394 18.4849C11.4394 18.3413 11.3863 18.3338 10.5151 18.3338C9.62877 18.3338 9.56059 18.3489 9.13635 18.568Z" fill="black"/>
<path d="M11.8182 18.4849C11.8182 18.6209 11.8712 18.636 12.2424 18.636C12.5985 18.636 12.75 18.6814 13.1364 18.9156C13.8712 19.3464 13.8636 19.3388 13.8636 19.9584V20.5025L13.2121 21.0164L12.5682 21.5227L12.4015 21.3715C12.2045 21.1977 11.8939 21.0315 11.8485 21.0768C11.8258 21.0919 11.8258 21.6738 11.8333 22.3615L11.8561 23.6159L13.447 21.6889C14.3258 20.6234 15.1136 19.6637 15.2121 19.5428L15.3788 19.3312L14.9091 19.029C13.8561 18.3715 13.7348 18.3338 12.7273 18.3338C11.8712 18.3338 11.8182 18.3413 11.8182 18.4849Z" fill="black"/>
<path d="M10.1364 19.2179L9.69696 19.4899V19.9509L9.70454 20.4118L10.1212 20.7443L10.5379 21.0768L10.7954 20.9333C10.9394 20.8577 11.0606 20.7746 11.0606 20.7519C11.0606 20.7292 10.9697 20.5025 10.8561 20.238C10.6894 19.83 10.6742 19.7469 10.7651 19.6864C10.9091 19.5957 10.9848 19.6033 10.9924 19.7091C10.9924 19.762 11.0909 20.0113 11.2121 20.2607L11.4242 20.7141L11.4318 19.8224L11.4394 18.9383H11.0076C10.6364 18.9458 10.5 18.9836 10.1364 19.2179Z" fill="black"/>
<path d="M11.8182 19.7846C11.8182 20.2456 11.8333 20.6083 11.8485 20.5932C11.8636 20.5781 12 20.3514 12.1515 20.0869C12.3106 19.83 12.4621 19.6184 12.5076 19.6184C12.6818 19.6184 12.6439 19.8678 12.3939 20.3212L12.1212 20.8048L12.3788 20.9408L12.6288 21.0768L13.053 20.7443L13.4773 20.4118V19.9584L13.4848 19.505L13.0227 19.2179C12.6591 18.9912 12.4924 18.9383 12.1894 18.9383H11.8182V19.7846Z" fill="black"/>
<path d="M6.8409 20.0945C6.06818 20.7368 5.5303 21.3035 4.91666 22.1348C4.39393 22.83 3.78787 24.0013 3.78787 24.3035C3.78787 24.5756 4.33333 25.2708 5.66666 26.6914C6.93181 28.0441 7.8409 28.8678 7.98484 28.7846C8.08333 28.7242 8.37121 28.4673 10.5454 26.4723L11.4394 25.6486V24.9156V24.1826L9.54545 21.8778C8.49999 20.6159 7.62121 19.5731 7.58333 19.5579C7.54545 19.5428 7.21211 19.7846 6.8409 20.0945Z" fill="black"/>
<path d="M13.7197 21.8552L11.8182 24.1675L11.8258 24.9307V25.7015L12.4924 26.306C12.8561 26.6385 13.6212 27.3413 14.1894 27.8703C14.7651 28.4068 15.2651 28.8375 15.2954 28.8375C15.4091 28.8375 17.197 27.0844 18.0454 26.1474C19.1439 24.9232 19.3939 24.5831 19.3939 24.3111C19.3939 23.6461 18.2424 21.8778 17.0682 20.7443C16.6061 20.2985 15.7197 19.5428 15.6515 19.5428C15.6364 19.5428 14.7651 20.5856 13.7197 21.8552Z" fill="black"/>
<path d="M3.78787 26.6914C3.78787 28.4597 3.84848 28.8073 4.24242 29.3514C4.36363 29.5252 4.61363 29.7595 4.78787 29.8728C5.07575 30.0693 5.15908 30.0844 5.83333 30.0844H6.56818L7.11363 29.6008L7.66666 29.1096L6.8409 28.3388C6.15151 27.6965 5.19696 26.6839 4.0303 25.3615L3.79545 25.097L3.78787 26.6914Z" fill="black"/>
<path d="M18.8636 25.7091C18.5985 26.034 17.7424 26.9408 16.9621 27.7191L15.553 29.1322L16.0833 29.6083L16.6212 30.0844L17.2197 30.1146C17.9697 30.1448 18.3636 30.0088 18.7727 29.563C18.9394 29.3892 19.1439 29.0416 19.2349 28.8073C19.3864 28.3992 19.3939 28.2557 19.3788 26.7443L19.3561 25.1121L18.8636 25.7091Z" fill="black"/>
<path d="M10.6061 26.8426C10.0833 27.3186 9.61363 27.7494 9.5606 27.8023C9.49999 27.8703 9.69696 27.8401 10.1288 27.7343C11 27.5076 12.1364 27.4924 12.9924 27.6965C13.3257 27.7796 13.6061 27.8325 13.6212 27.8249C13.6515 27.7872 11.6742 25.966 11.6136 25.966C11.5757 25.9736 11.1288 26.3665 10.6061 26.8426Z" fill="black"/>
<path d="M10.6136 27.9383C10.4242 27.9761 9.94695 28.1045 9.55301 28.233C8.96968 28.4144 8.75756 28.5202 8.49998 28.7695C8.31816 28.9433 8.1818 29.0869 8.19695 29.0945C8.2121 29.102 8.31816 29.1851 8.43938 29.2758C8.6515 29.4421 8.68937 29.4421 11.5757 29.4421C14.4091 29.4421 14.5 29.4345 14.75 29.2834C14.8939 29.1927 15 29.102 14.9848 29.0718C14.9697 29.0416 14.8182 28.8904 14.6515 28.7393C13.9166 28.0819 11.9015 27.6814 10.6136 27.9383Z" fill="black"/>
</g>
<defs>
<clipPath id="clip0_116_199">
<rect width="23.1818" height="30" fill="white" transform="translate(0 0.5)"/>
</clipPath>
</defs>
</svg>
