<svg width="121" height="46" viewBox="0 0 121 46" fill="none" xmlns="http://www.w3.org/2000/svg">
<path d="M30.3333 12.9645V42.565C30.3333 44.3542 28.8915 45.796 27.1023 45.796H3.56436C1.79251 45.796 0.333328 44.3542 0.333328 42.565V3.82729C0.333328 2.03806 1.77513 0.596252 3.56436 0.596252H17.9651L30.3333 12.9645Z" fill="#00ABE0"/>
<path d="M30.3334 12.9645H21.1962C19.4243 12.9645 17.9651 11.5227 17.9651 9.73348V0.596252L30.3334 12.9645Z" fill="#0074BD"/>
<path d="M11.8504 21.0769C11.8504 21.3028 11.7983 21.5286 11.6941 21.7892C11.5898 22.0497 11.4161 22.2929 11.1903 22.5361C10.9645 22.7793 10.6692 22.9878 10.3044 23.1441C9.93958 23.3005 9.52267 23.3699 9.03628 23.3699C8.67148 23.3699 8.34143 23.3352 8.04612 23.2657C7.75081 23.1962 7.47287 23.092 7.22968 22.9357C6.98648 22.7967 6.76066 22.6056 6.5522 22.3624C6.37849 22.154 6.22215 21.9108 6.08318 21.6328C5.96158 21.3723 5.85735 21.0769 5.78787 20.7816C5.71839 20.4863 5.68364 20.1563 5.68364 19.8089C5.68364 19.253 5.7705 18.7492 5.92684 18.3149C6.08318 17.8807 6.32638 17.4985 6.62169 17.1858C6.917 16.8731 7.28179 16.6299 7.68133 16.4736C8.08086 16.3172 8.51514 16.2304 8.96679 16.2304C9.52267 16.2304 10.0264 16.3346 10.4607 16.5604C10.895 16.7863 11.225 17.0642 11.4682 17.3769C11.6941 17.7069 11.8157 18.0196 11.8157 18.2976C11.8157 18.4539 11.7635 18.5929 11.642 18.7145C11.5377 18.8361 11.3988 18.9056 11.225 18.9056C11.0513 18.9056 10.9124 18.8708 10.8255 18.784C10.7387 18.6971 10.6344 18.5581 10.5302 18.3497C10.3565 18.0023 10.1307 17.7591 9.88746 17.5853C9.64427 17.4116 9.33159 17.3248 8.98416 17.3248C8.41092 17.3248 7.95927 17.5506 7.61184 17.9849C7.26442 18.4192 7.10808 19.0445 7.10808 19.8436C7.10808 20.3821 7.17756 20.8338 7.3339 21.1812C7.49024 21.5286 7.6987 21.8065 7.97664 21.9802C8.25458 22.154 8.56726 22.2408 8.94942 22.2408C9.34896 22.2408 9.69638 22.1366 9.97432 21.9455C10.2523 21.7544 10.4607 21.4591 10.5997 21.0769C10.6518 20.9032 10.7387 20.7469 10.8255 20.6253C10.9124 20.5037 11.0513 20.4516 11.2424 20.4516C11.4161 20.4516 11.5551 20.5037 11.6767 20.6253C11.7809 20.7643 11.8504 20.9032 11.8504 21.0769Z" fill="white"/>
<path d="M18.3472 21.1986C18.3472 21.6155 18.243 21.9976 18.0171 22.3277C17.8087 22.6577 17.496 22.9183 17.0791 23.1094C16.6622 23.3005 16.1758 23.3873 15.6026 23.3873C14.9251 23.3873 14.3692 23.2657 13.9176 23.0052C13.6049 22.8141 13.3443 22.5709 13.1532 22.2582C12.9621 21.9455 12.8579 21.6502 12.8579 21.3549C12.8579 21.1812 12.91 21.0422 13.0316 20.9206C13.1532 20.799 13.2922 20.7469 13.4833 20.7469C13.6222 20.7469 13.7612 20.799 13.8654 20.8859C13.9697 20.9727 14.0565 21.1117 14.126 21.3028C14.2129 21.5286 14.3171 21.7023 14.4039 21.8587C14.5082 21.9976 14.6471 22.1192 14.8382 22.2235C15.0293 22.3277 15.2725 22.3624 15.5678 22.3624C15.9847 22.3624 16.3148 22.2582 16.5753 22.0671C16.8359 21.876 16.9575 21.6328 16.9575 21.3375C16.9575 21.1117 16.888 20.9206 16.749 20.7817C16.6101 20.6427 16.4364 20.5385 16.2105 20.4516C15.9847 20.3821 15.6894 20.2953 15.3246 20.2084C14.8209 20.0868 14.4213 19.9652 14.0739 19.8089C13.7438 19.6525 13.4833 19.4441 13.2748 19.1661C13.0837 18.9056 12.9795 18.5581 12.9795 18.1586C12.9795 17.7764 13.0837 17.4464 13.2922 17.1511C13.5006 16.8558 13.796 16.6299 14.1955 16.4736C14.595 16.3173 15.0467 16.2304 15.5852 16.2304C16.0021 16.2304 16.3669 16.2825 16.6796 16.3867C16.9922 16.491 17.2528 16.6299 17.4439 16.8037C17.6523 16.9774 17.7913 17.1685 17.8955 17.3595C17.9824 17.5506 18.0345 17.7417 18.0345 17.9154C18.0345 18.0891 17.9824 18.2281 17.8608 18.3671C17.7392 18.506 17.6002 18.5755 17.4265 18.5755C17.2702 18.5755 17.1486 18.5408 17.0617 18.4539C16.9749 18.3671 16.888 18.2455 16.7838 18.0544C16.6622 17.7938 16.5059 17.5854 16.3321 17.4464C16.1584 17.3074 15.8805 17.2206 15.481 17.2206C15.1162 17.2206 14.8382 17.3074 14.6124 17.4638C14.3866 17.6201 14.2823 17.8112 14.2823 18.037C14.2823 18.176 14.3171 18.2976 14.3866 18.4018C14.4561 18.506 14.5603 18.5929 14.6993 18.6624C14.8382 18.7319 14.9598 18.784 15.0988 18.8361C15.2378 18.8708 15.4636 18.9403 15.7589 19.0098C16.1411 19.0966 16.5059 19.2009 16.8185 19.3051C17.1312 19.4093 17.4092 19.5483 17.6176 19.7046C17.8434 19.861 18.0171 20.0521 18.1387 20.2953C18.2777 20.5558 18.3472 20.8511 18.3472 21.1986Z" fill="white"/>
<path d="M24.7573 21.1986C24.7573 21.6155 24.653 21.9976 24.4272 22.3277C24.2188 22.6577 23.9061 22.9183 23.4892 23.1094C23.0723 23.3005 22.5859 23.3873 22.0126 23.3873C21.3351 23.3873 20.7793 23.2657 20.3276 23.0052C20.0149 22.8141 19.7544 22.5709 19.5633 22.2582C19.3722 21.9455 19.268 21.6502 19.268 21.3549C19.268 21.1812 19.3201 21.0422 19.4417 20.9206C19.5633 20.799 19.7022 20.7469 19.8933 20.7469C20.0323 20.7469 20.1713 20.799 20.2755 20.8859C20.3797 20.9727 20.4666 21.1117 20.5361 21.3028C20.6229 21.5286 20.7271 21.7023 20.814 21.8587C20.9182 21.9976 21.0572 22.1192 21.2483 22.2235C21.4394 22.3277 21.6826 22.3624 21.9779 22.3624C22.3948 22.3624 22.7248 22.2582 22.9854 22.0671C23.246 21.876 23.3676 21.6328 23.3676 21.3375C23.3676 21.1117 23.2981 20.9206 23.1591 20.7817C23.0201 20.6427 22.8464 20.5385 22.6206 20.4516C22.3948 20.3821 22.0995 20.2953 21.7347 20.2084C21.2309 20.0868 20.8314 19.9652 20.484 19.8089C20.1539 19.6525 19.8933 19.4441 19.6849 19.1661C19.4938 18.9056 19.3896 18.5581 19.3896 18.1586C19.3896 17.7764 19.4938 17.4464 19.7023 17.1511C19.9107 16.8558 20.206 16.6299 20.6056 16.4736C21.0051 16.3173 21.4567 16.2304 21.9952 16.2304C22.4122 16.2304 22.7769 16.2825 23.0896 16.3867C23.4023 16.491 23.6629 16.6299 23.854 16.8037C24.0624 16.9774 24.2014 17.1685 24.3056 17.3595C24.3925 17.5506 24.4446 17.7417 24.4446 17.9154C24.4446 18.0891 24.3925 18.2281 24.2709 18.3671C24.1493 18.506 24.0103 18.5755 23.8366 18.5755C23.6802 18.5755 23.5586 18.5408 23.4718 18.4539C23.3849 18.3671 23.2981 18.2455 23.1939 18.0544C23.0723 17.7938 22.9159 17.5854 22.7422 17.4464C22.5685 17.3074 22.2906 17.2206 21.891 17.2206C21.5262 17.2206 21.2483 17.3074 21.0225 17.4638C20.7966 17.6201 20.6924 17.8112 20.6924 18.037C20.6924 18.176 20.7271 18.2976 20.7966 18.4018C20.8661 18.506 20.9703 18.5929 21.1093 18.6624C21.2483 18.7319 21.3699 18.784 21.5089 18.8361C21.6478 18.8708 21.8736 18.9403 22.169 19.0098C22.5511 19.0966 22.9159 19.2009 23.2286 19.3051C23.5413 19.4093 23.8192 19.5483 24.0277 19.7046C24.2535 19.861 24.4272 20.0521 24.5488 20.2953C24.7051 20.5558 24.7573 20.8511 24.7573 21.1986Z" fill="white"/>
<path d="M11.0688 35.8423C11.3641 36.0334 11.5899 36.2245 11.7636 36.4677C11.9373 36.6935 12.0416 36.9888 12.111 37.3362C12.1805 37.6836 12.2153 38.1353 12.2153 38.6912C12.2153 39.1081 12.2326 39.4034 12.25 39.6118C12.2674 39.8029 12.3021 39.9593 12.3542 40.0635C12.4064 40.1677 12.4758 40.2372 12.5627 40.2719C12.6496 40.3067 12.7711 40.3414 12.9622 40.3588C13.1186 40.3762 13.2575 40.463 13.3618 40.5846C13.466 40.7236 13.5181 40.8973 13.5181 41.1058C13.5181 41.6095 13.2054 41.8701 12.5974 41.8701C12.2153 41.8701 11.8852 41.7832 11.5725 41.6269C11.2772 41.4706 11.0514 41.2447 10.8777 40.9494C10.7214 40.6541 10.6345 40.3241 10.6345 39.9419C10.6171 39.2992 10.6171 38.7954 10.5998 38.4132C10.5824 38.0311 10.565 37.7879 10.5476 37.6663C10.4782 37.3883 10.3913 37.1799 10.2697 37.0409C10.1481 36.9019 9.99176 36.763 9.78331 36.6414C9.59223 36.5198 9.43588 36.4155 9.3664 36.3113C9.27954 36.2071 9.2448 36.0508 9.2448 35.8423C9.2448 35.5296 9.3664 35.3038 9.6096 35.1475C9.90491 34.9564 10.1307 34.8 10.2523 34.6611C10.3739 34.5221 10.4782 34.3658 10.5303 34.1573C10.5824 33.9488 10.6171 33.723 10.6171 33.4798C10.6171 33.2366 10.6345 32.646 10.6519 31.708C10.6692 31.1347 10.8429 30.6657 11.2077 30.3183C11.5552 29.9708 12.0242 29.7971 12.6148 29.7971C13.2228 29.7971 13.5355 30.0403 13.5355 30.5441C13.5355 30.7699 13.4834 30.9436 13.3791 31.0826C13.2749 31.2042 13.1359 31.2911 12.9796 31.3084C12.7364 31.3432 12.5627 31.3953 12.4758 31.4648C12.3716 31.5343 12.3195 31.6558 12.2848 31.8469C12.25 32.038 12.2326 32.4028 12.2326 32.9587C12.2326 33.4972 12.1979 33.9315 12.1284 34.2789C12.0763 34.6263 11.9547 34.9216 11.7984 35.1648C11.6073 35.4254 11.3815 35.6512 11.0688 35.8423Z" fill="white"/>
<path d="M19.2505 35.8423C19.0247 35.7033 18.8336 35.547 18.6946 35.3907C18.5556 35.2343 18.434 35.0432 18.3472 34.8348C18.2603 34.609 18.1908 34.3484 18.1561 34.0531C18.1213 33.7578 18.104 33.393 18.104 32.9761C18.104 32.5765 18.104 32.2812 18.0866 32.0554C18.0692 31.8469 18.0345 31.6906 17.9824 31.5864C17.9303 31.4822 17.8608 31.43 17.7739 31.3953C17.6871 31.3606 17.5481 31.3258 17.357 31.3084C17.2007 31.2911 17.0791 31.2042 16.9575 31.0826C16.8533 30.961 16.8011 30.7699 16.8011 30.5441C16.8011 30.0403 17.0965 29.7971 17.7044 29.7971C18.0866 29.7971 18.434 29.884 18.7293 30.0403C19.0247 30.1967 19.2505 30.4225 19.4242 30.7178C19.5979 31.0131 19.6848 31.3432 19.6848 31.708C19.7021 33.0977 19.7369 33.862 19.7716 34.001C19.8411 34.2789 19.928 34.4874 20.0669 34.6263C20.1885 34.7653 20.3449 34.9043 20.5359 35.0085C20.727 35.1127 20.8486 35.2343 20.9528 35.3386C21.0397 35.4428 21.0918 35.6165 21.0918 35.8423C21.0918 36.155 20.9702 36.3808 20.727 36.5372C20.4317 36.7109 20.2233 36.8672 20.0843 37.0062C19.9453 37.1452 19.8585 37.3189 19.8064 37.5099C19.7542 37.7184 19.7195 38.0137 19.7195 38.4306C19.7021 38.8302 19.7021 39.3513 19.6848 39.9593C19.6674 40.5325 19.4937 41.0016 19.1289 41.349C18.7641 41.6964 18.2951 41.8701 17.7044 41.8701C17.4091 41.8701 17.1833 41.8006 17.027 41.679C16.8706 41.5574 16.7838 41.3663 16.7838 41.1232C16.7838 40.9842 16.8011 40.8626 16.8533 40.741C16.9054 40.6194 16.9749 40.5325 17.0443 40.4804C17.1312 40.4109 17.2181 40.3762 17.3223 40.3762C17.5134 40.3588 17.6523 40.3241 17.7392 40.2893C17.826 40.2546 17.8955 40.1851 17.9476 40.0809C17.9998 39.9767 18.0345 39.8203 18.0345 39.6119C18.0519 39.4034 18.0519 39.1081 18.0519 38.7259C18.0519 38.1527 18.0866 37.701 18.1561 37.371C18.2082 37.0409 18.3298 36.763 18.4861 36.5372C18.6946 36.2592 18.9378 36.0508 19.2505 35.8423Z" fill="white"/>
<rect x="40.3333" y="16.25" width="80" height="14" rx="4" fill="#ECECEC"/>
<rect x="40.3333" y="16.1423" width="60" height="14" rx="4" fill="#7F76E7" fill-opacity="0.5"/>
</svg>
