<svg width="18" height="27" viewBox="0 0 18 27" fill="none" xmlns="http://www.w3.org/2000/svg">
<g clip-path="url(#clip0_23_604)">
<path d="M4.34477 26.5884C6.74212 26.5884 8.6878 24.6471 8.6878 22.2551V17.9217H4.34477C1.94742 17.9217 0.0017395 19.8631 0.0017395 22.2551C0.0017395 24.6471 1.94742 26.5884 4.34477 26.5884Z" fill="#0ACF83"/>
<path d="M0.0017395 13.5884C0.0017395 11.1964 1.94742 9.25507 4.34477 9.25507H8.6878V17.9218H4.34477C1.94742 17.9218 0.0017395 15.9804 0.0017395 13.5884Z" fill="#A259FF"/>
<path d="M0.00169373 4.92175C0.00169373 2.52974 1.94737 0.588409 4.34473 0.588409H8.68776V9.25508H4.34473C1.94737 9.25508 0.00169373 7.31375 0.00169373 4.92175Z" fill="#F24E1E"/>
<path d="M8.68781 0.588409H13.0308C15.4282 0.588409 17.3739 2.52974 17.3739 4.92175C17.3739 7.31375 15.4282 9.25508 13.0308 9.25508H8.68781V0.588409Z" fill="#FF7262"/>
<path d="M17.3739 13.5884C17.3739 15.9804 15.4282 17.9218 13.0308 17.9218C10.6335 17.9218 8.68781 15.9804 8.68781 13.5884C8.68781 11.1964 10.6335 9.25507 13.0308 9.25507C15.4282 9.25507 17.3739 11.1964 17.3739 13.5884Z" fill="#1ABCFE"/>
</g>
<defs>
<clipPath id="clip0_23_604">
<rect width="17.3756" height="26" fill="white" transform="translate(0 0.588409)"/>
</clipPath>
</defs>
</svg>
