<svg width="108" height="27" viewBox="0 0 108 27" fill="none" xmlns="http://www.w3.org/2000/svg">
<g clip-path="url(#clip0_23_603)">
<path d="M4.34477 26.7845C6.74212 26.7845 8.6878 24.8432 8.6878 22.4512V18.1179H4.34477C1.94742 18.1179 0.0017395 20.0592 0.0017395 22.4512C0.0017395 24.8432 1.94742 26.7845 4.34477 26.7845Z" fill="#0ACF83"/>
<path d="M0.0017395 13.7845C0.0017395 11.3925 1.94742 9.45121 4.34477 9.45121H8.6878V18.1179H4.34477C1.94742 18.1179 0.0017395 16.1766 0.0017395 13.7845Z" fill="#A259FF"/>
<path d="M0.00169373 5.11788C0.00169373 2.72588 1.94737 0.784546 4.34473 0.784546H8.68776V9.45122H4.34473C1.94737 9.45122 0.00169373 7.50988 0.00169373 5.11788Z" fill="#F24E1E"/>
<path d="M8.68781 0.784546H13.0308C15.4282 0.784546 17.3739 2.72588 17.3739 5.11788C17.3739 7.50988 15.4282 9.45122 13.0308 9.45122H8.68781V0.784546Z" fill="#FF7262"/>
<path d="M17.3739 13.7845C17.3739 16.1766 15.4282 18.1179 13.0308 18.1179C10.6335 18.1179 8.68781 16.1766 8.68781 13.7845C8.68781 11.3925 10.6335 9.45121 13.0308 9.45121C15.4282 9.45121 17.3739 11.3925 17.3739 13.7845Z" fill="#1ABCFE"/>
</g>
<rect x="27.7512" y="6.90955" width="80" height="14" rx="4" fill="#ECECEC"/>
<rect x="27.3756" y="6.65955" width="68" height="14" rx="4" fill="#7F76E7" fill-opacity="0.5"/>
<defs>
<clipPath id="clip0_23_603">
<rect width="17.3756" height="26" fill="white" transform="translate(0 0.784546)"/>
</clipPath>
</defs>
</svg>
