<svg width="120" height="46" viewBox="0 0 120 46" fill="none" xmlns="http://www.w3.org/2000/svg">
<path d="M30 12.9704V42.5711C30 44.3593 28.559 45.8003 26.7708 45.8003H3.22917C1.44097 45.8003 0 44.3593 0 42.5711V3.82115C0 2.03295 1.44097 0.59198 3.22917 0.59198H17.6389L30 12.9704Z" fill="#84BECB"/>
<path d="M30 12.9704H20.868C19.0798 12.9704 17.6389 11.5295 17.6389 9.74128V0.59198L30 12.9704Z" fill="#669FC0"/>
<path d="M10.9781 14.792V22.592H12.0681V14.792H10.9781ZM7.16813 20.292C7.16813 20.792 7.27146 21.222 7.47813 21.582C7.68479 21.942 7.95813 22.2186 8.29812 22.412C8.64479 22.5986 9.01479 22.692 9.40813 22.692C9.79479 22.692 10.1315 22.5953 10.4181 22.402C10.7115 22.2086 10.9415 21.932 11.1081 21.572C11.2815 21.212 11.3681 20.7853 11.3681 20.292C11.3681 19.792 11.2815 19.3653 11.1081 19.012C10.9415 18.652 10.7115 18.3753 10.4181 18.182C10.1315 17.9886 9.79479 17.892 9.40813 17.892C9.01479 17.892 8.64479 17.9886 8.29812 18.182C7.95813 18.3686 7.68479 18.642 7.47813 19.002C7.27146 19.3553 7.16813 19.7853 7.16813 20.292ZM8.28813 20.292C8.28813 19.9853 8.35146 19.722 8.47813 19.502C8.60479 19.282 8.77146 19.1153 8.97813 19.002C9.19146 18.8886 9.42146 18.832 9.66813 18.832C9.87479 18.832 10.0781 18.8886 10.2781 19.002C10.4848 19.1153 10.6515 19.282 10.7781 19.502C10.9115 19.7153 10.9781 19.9786 10.9781 20.292C10.9781 20.6053 10.9115 20.872 10.7781 21.092C10.6515 21.3053 10.4848 21.4686 10.2781 21.582C10.0781 21.6953 9.87479 21.752 9.66813 21.752C9.42146 21.752 9.19146 21.6953 8.97813 21.582C8.77146 21.4686 8.60479 21.302 8.47813 21.082C8.35146 20.862 8.28813 20.5986 8.28813 20.292ZM14.0868 21.162C14.0868 21.0153 14.1201 20.892 14.1868 20.792C14.2601 20.692 14.3668 20.6153 14.5068 20.562C14.6468 20.502 14.8301 20.472 15.0568 20.472C15.3168 20.472 15.5635 20.5053 15.7968 20.572C16.0301 20.6386 16.2501 20.7453 16.4568 20.892V20.342C16.3968 20.2686 16.2935 20.1886 16.1468 20.102C16.0001 20.0086 15.8135 19.9286 15.5868 19.862C15.3668 19.7953 15.1035 19.762 14.7968 19.762C14.2235 19.762 13.7801 19.8953 13.4668 20.162C13.1535 20.422 12.9968 20.7753 12.9968 21.222C12.9968 21.5353 13.0701 21.802 13.2168 22.022C13.3635 22.242 13.5601 22.4086 13.8068 22.522C14.0535 22.6353 14.3201 22.692 14.6068 22.692C14.8735 22.692 15.1335 22.6453 15.3868 22.552C15.6468 22.452 15.8601 22.3053 16.0268 22.112C16.2001 21.912 16.2868 21.6653 16.2868 21.372L16.1268 20.772C16.1268 20.9986 16.0701 21.1986 15.9568 21.372C15.8501 21.5386 15.7068 21.6653 15.5268 21.752C15.3535 21.8386 15.1601 21.882 14.9468 21.882C14.7801 21.882 14.6301 21.8553 14.4968 21.802C14.3701 21.7486 14.2701 21.6686 14.1968 21.562C14.1235 21.4486 14.0868 21.3153 14.0868 21.162ZM13.7468 19.192C13.8135 19.1453 13.9135 19.0886 14.0468 19.022C14.1868 18.9486 14.3501 18.8886 14.5368 18.842C14.7301 18.7886 14.9335 18.762 15.1468 18.762C15.2868 18.762 15.4168 18.7753 15.5368 18.802C15.6568 18.8286 15.7601 18.872 15.8468 18.932C15.9335 18.992 16.0001 19.0686 16.0468 19.162C16.1001 19.2553 16.1268 19.3753 16.1268 19.522V22.592H17.1868V19.312C17.1868 19.0053 17.1035 18.7486 16.9368 18.542C16.7701 18.3286 16.5401 18.1653 16.2468 18.052C15.9601 17.9386 15.6268 17.882 15.2468 17.882C14.8201 17.882 14.4401 17.942 14.1068 18.062C13.7801 18.182 13.5135 18.3053 13.3068 18.432L13.7468 19.192ZM19.5159 17.992H18.4459V22.592H19.5159V17.992ZM20.8859 19.142L21.4059 18.232C21.3059 18.1053 21.1825 18.0186 21.0359 17.972C20.8892 17.9186 20.7325 17.892 20.5659 17.892C20.3325 17.892 20.1059 17.9753 19.8859 18.142C19.6725 18.3086 19.4959 18.5353 19.3559 18.822C19.2225 19.102 19.1559 19.4253 19.1559 19.792L19.5159 20.002C19.5159 19.782 19.5392 19.592 19.5859 19.432C19.6392 19.2653 19.7225 19.1353 19.8359 19.042C19.9492 18.9486 20.0959 18.902 20.2759 18.902C20.4092 18.902 20.5192 18.922 20.6059 18.962C20.6925 19.002 20.7859 19.062 20.8859 19.142ZM21.507 17.992V18.942H24.117V17.992H21.507ZM22.277 16.392V22.592H23.347V16.392H22.277Z" fill="white"/>
<path d="M5.35243 32.452V33.577H8.17843V32.452H5.35243ZM8.02543 30.877L8.57443 29.878C8.51443 29.818 8.43343 29.755 8.33143 29.689C8.22943 29.617 8.10643 29.557 7.96243 29.509C7.81843 29.455 7.64143 29.428 7.43143 29.428C7.08943 29.428 6.80143 29.488 6.56743 29.608C6.33943 29.728 6.16543 29.899 6.04543 30.121C5.93143 30.343 5.87443 30.61 5.87443 30.922V36.592H7.17943V31.264C7.17943 31.12 7.19743 31.003 7.23343 30.913C7.26943 30.823 7.31743 30.757 7.37743 30.715C7.44343 30.673 7.52143 30.652 7.61143 30.652C7.68943 30.652 7.76143 30.67 7.82743 30.706C7.89943 30.742 7.96543 30.799 8.02543 30.877ZM8.78818 35.836H13.4232V34.657H8.78818V35.836ZM8.78818 33.982H13.4232V32.803H8.78818V33.982ZM17.158 34.252L14.503 35.26V36.601L19.093 34.675V33.766L14.503 31.84V33.172L17.158 34.252ZM21.3758 29.572C21.0158 30.244 20.7428 30.955 20.5568 31.705C20.3768 32.455 20.2868 33.214 20.2868 33.982C20.2868 34.744 20.3768 35.5 20.5568 36.25C20.7428 37 21.0158 37.714 21.3758 38.392H22.6178C22.3058 37.714 22.0628 37 21.8888 36.25C21.7148 35.5 21.6278 34.744 21.6278 33.982C21.6278 33.214 21.7148 32.455 21.8888 31.705C22.0628 30.955 22.3058 30.244 22.6178 29.572H21.3758ZM24.1102 38.392C24.4702 37.714 24.7402 37 24.9202 36.25C25.1062 35.5 25.1992 34.744 25.1992 33.982C25.1992 33.214 25.1062 32.455 24.9202 31.705C24.7402 30.955 24.4702 30.244 24.1102 29.572H22.8682C23.1862 30.244 23.4292 30.955 23.5972 31.705C23.7712 32.455 23.8582 33.214 23.8582 33.982C23.8582 34.744 23.7712 35.5 23.5972 36.25C23.4292 37 23.1862 37.714 22.8682 38.392H24.1102Z" fill="white"/>
<rect x="40" y="16.3634" width="80" height="14" rx="4" fill="#ECECEC"/>
<rect x="40" y="16.0288" width="35" height="14" rx="4" fill="#7F76E7" fill-opacity="0.5"/>
</svg>
