<?xml version="1.0" encoding="utf-8"?>
<!-- Generator: Adobe Illustrator 24.3.0, SVG Export Plug-In . SVG Version: 6.00 Build 0)  -->
<svg version="1.1" id="Слой_1" xmlns="http://www.w3.org/2000/svg" xmlns:xlink="http://www.w3.org/1999/xlink" x="0px" y="0px"
	 viewBox="0 0 1917 904" style="enable-background:new 0 0 1917 904;" xml:space="preserve">
<style type="text/css">
	.st0{fill-rule:evenodd;clip-rule:evenodd;fill:#E63338;}
	.st1{fill:#E63338;}
	.st2{fill:#FFCD00;}
</style>
<g>
	<path class="st0" d="M434.6,419.7c10.1-7.8,16.1-14.5,16.1-25.3c0-12.8-10.7-20.6-23.6-20.6c-13,0-22.2,7.3-22.2,20.9
		c0,11.6,7.8,20,14.7,26.7l5.5,5.2L434.6,419.7z M467.8,513l-49.9-52l-8.4,5.5c-12.4,8.4-18.5,18.9-18.5,32
		c0,20.9,15.3,31.9,37.2,31.9C443.9,530.4,457.1,524.6,467.8,513z M511.3,455.5c9.6,0,16.9,8.6,14.4,17.9
		c-3.9,14.3-9.9,27.8-17.8,39.3l15.7,16.2c5.5,5.6,5.5,14.6,0,20.2c-5.6,5.7-14.8,5.7-20.4,0l-15-15.3l-3.7,3.3
		c-16.4,13.9-36.3,21.5-57.4,21.5c-40.1,0-68.3-20.6-68.3-59.2c0-28.5,18.2-44.7,35.5-56l3.8-2.4l-3.8-4.5
		c-12.4-14.8-19.3-24.7-19.3-42.1c0-27,20.2-46.8,51.3-46.8c30.9,0,54.5,17.4,54.5,46.2c0,22.4-15.3,35.4-38.3,51.7l43.8,45.6
		c3.9-6.6,6.9-14.3,9.1-22.4C497.3,461.1,503.7,455.5,511.3,455.5z"/>
	<path class="st0" d="M7,51.9C7,24.7,29,2.6,56.2,2.6H197c23.3,0,42.2,18.9,42.2,42.2S220.3,87.1,197,87.1h-84.4
		c-11.7,0-21.1,9.5-21.1,21.1v49.2c0,11.7,9.5,21.1,21.1,21.1h74.8c19.4,0,35.2,15.8,35.2,35.2c0,19.4-15.8,35.2-35.2,35.2h-74.8
		c-11.7,0-21.1,9.5-21.1,21.1v98.5c0,23.3-18.9,42.2-42.2,42.2C25.9,410.8,7,391.9,7,368.6V51.9z"/>
	<path class="st0" d="M330.7,2.6c23.3,0,42.2,18.9,42.2,42.2v112.6c0,31.1,21.1,63.3,56.3,63.3s56.3-32.2,56.3-63.3V44.8
		c0-23.3,18.9-42.2,42.2-42.2c23.3,0,42.2,18.9,42.2,42.2v112.6c0,77.7-63,133.7-140.7,133.7c-77.7,0-140.7-56-140.7-133.7V44.8
		C288.4,21.5,307.4,2.6,330.7,2.6z"/>
	<path class="st0" d="M619.2,44.8c0-23.3,18.9-42.2,42.2-42.2h1c15.2,0,29.3,8.2,36.8,21.5l117.1,207.3c0,0,0-105.5,0-186.5
		c0-23.3,18.9-42.2,42.2-42.2c23.3,0,42.2,18.9,42.2,42.2v323.7c0,23.3-18.9,42.2-42.2,42.2h-1c-15.2,0-29.3-8.2-36.8-21.5
		L703.6,182.1c0,0,0,102.5,0,186.5c0,23.3-18.9,42.2-42.2,42.2c-23.3,0-42.2-18.9-42.2-42.2V44.8z"/>
	<path class="st0" d="M619.2,537.4c0-23.3,18.9-42.2,42.2-42.2h1c15.2,0,29.3,8.2,36.8,21.5l117.1,207.3c0,0,0-105.5,0-186.5
		c0-23.3,18.9-42.2,42.2-42.2c23.3,0,42.2,18.9,42.2,42.2v323.7c0,23.3-18.9,42.2-42.2,42.2h-1c-15.2,0-29.3-8.2-36.8-21.5
		L703.6,674.7c0,0,0,102.5,0,186.5c0,23.3-18.9,42.2-42.2,42.2c-23.3,0-42.2-18.9-42.2-42.2V537.4z"/>
	<path class="st0" d="M330.7,614.9c23.3,0,42.2,18.9,42.2,42.2v112.6c0,31.1,21.1,63.3,56.3,63.3c35.2,0,56.3-32.2,56.3-63.3V657.1
		c0-23.3,18.9-42.2,42.2-42.2c23.3,0,42.2,18.9,42.2,42.2v112.6c0,77.7-63,133.7-140.7,133.7s-140.7-56-140.7-133.7V657.1
		C288.5,633.8,307.4,614.9,330.7,614.9z"/>
	<path class="st1" d="M253.3,787.7c0,35.8-12.7,64.1-38,84.7c-25.2,20.6-60.3,31-105.3,31c-32.9,0-62.8-5-89.7-15
		c-12.8-4.8-20.4-17.5-20.4-31.1c0-26.2,27-43.4,51.9-35.1c5.1,1.7,10,3.2,14.6,4.4c18.3,4.9,31.9,5.9,47,5.9
		c18.1,0,31.9-3.5,41.5-10.6c9.7-7.1,14.6-17.6,14.6-31.5c0-7.8-2.1-14.7-6.4-20.6c-4.3-6.2-10.5-12-18.9-17.6
		c-8.2-5.6-21.9-13.2-47.2-25.5c-23.7-11.4-41.6-22.4-53.4-32.9c-11.9-10.5-21.4-22.7-28.4-36.7C8,643.1,4.4,626.8,4.4,608.2
		c0-35.1,11.6-62.7,34.8-82.8c23.4-20.1,55.6-30.1,96.8-30.1c20.2,0,39.4,2.4,57.7,7.3c8.4,2.2,16.9,4.8,25.6,7.9
		c18.2,6.4,26.4,26.9,19.1,44.8c-7.5,18.4-28.4,26.9-47.3,20.5c-6.5-2.2-12.5-4-17.9-5.3c-13.5-3.4-23-4.9-36.1-4.9
		c-15.6,0-27.6,3.7-35.9,11.1c-8.3,7.4-12.5,17.1-12.5,29.1c0,7.4,1.7,13.9,5.1,19.6c3.4,5.4,8.7,10.8,16,16
		c7.4,5.1,21.1,14,48.6,27.4c36.3,17.7,61.2,35.6,74.7,53.5C246.5,740,253.3,761.8,253.3,787.7z"/>
	<path class="st2" d="M1025.7,313.7c-16.5,16.5-16.5,43.2,0,59.7c16.5,16.5,43.2,16.5,59.7,0L1384,74.7c16.5-16.5,16.5-43.2,0-59.7
		c-16.5-16.5-43.2-16.5-59.7,0L1025.7,313.7z"/>
	<path class="st2" d="M1025.7,54.8c-16.5,16.5-16.5,43.2,0,59.7c16.5,16.5,43.2,16.5,59.7,0l39.8-39.8c16.5-16.5,16.5-43.2,0-59.7
		c-16.5-16.5-43.2-16.5-59.7,0L1025.7,54.8z"/>
	<path class="st2" d="M1374.1,482.9c-16.5,16.5-16.5,43.2,0,59.7c16.5,16.5,43.2,16.5,59.7,0l467.9-467.9
		c16.5-16.5,16.5-43.2,0-59.7c-16.5-16.5-43.2-16.5-59.7,0L1374.1,482.9z"/>
	<path class="st2" d="M1224.8,373.4c-16.5,16.5-16.5,43.2,0,59.7c16.5,16.5,43.2,16.5,59.7,0l358.4-358.4
		c16.5-16.5,16.5-43.2,0-59.7s-43.2-16.5-59.7,0L1224.8,373.4z"/>
	<path class="st2" d="M1483.6,691.9c-16.5-16.5-16.5-43.2,0-59.7L1842,273.8c16.5-16.5,43.2-16.5,59.7,0c16.5,16.5,16.5,43.2,0,59.7
		l-358.4,358.4C1526.8,708.4,1500.1,708.4,1483.6,691.9z"/>
	<path class="st2" d="M1802.2,891c-16.5-16.5-16.5-43.2,0-59.7l39.8-39.8c16.5-16.5,43.2-16.5,59.7,0c16.5,16.5,16.5,43.2,0,59.7
		l-39.8,39.8C1845.4,907.5,1818.7,907.5,1802.2,891z"/>
	<path class="st2" d="M1543.3,891c-16.5-16.5-16.5-43.2,0-59.7L1842,532.7c16.5-16.5,43.2-16.5,59.7,0c16.5,16.5,16.5,43.2,0,59.7
		L1603.1,891C1586.6,907.5,1559.8,907.5,1543.3,891z"/>
	<path class="st2" d="M1360.2,903.4c37.3,0.1,66.6-31,60.5-67.8c-28.8-173.5-166-310.7-339.6-339.6c-36.8-6.1-67.9,23.2-67.8,60.4
		v278.9c0.1,37.3,30.8,68,68,68H1360.2z"/>
</g>
</svg>
