<svg width="120" height="46" viewBox="0 0 120 46" fill="none" xmlns="http://www.w3.org/2000/svg">
<path d="M30 12.9696V42.5718C30 44.3619 28.558 45.8039 26.768 45.8039H3.23204C1.45856 45.8039 0 44.3619 0 42.5718V3.82045C0 2.0304 1.44199 0.588409 3.23204 0.588409H17.6354L30 12.9696Z" fill="#FF4C1E"/>
<path d="M30 12.9696H20.8674C19.0939 12.9696 17.6353 11.5276 17.6353 9.73758V0.588409L30 12.9696Z" fill="#F33F1D"/>
<path d="M3.11604 17.4116V19.384H6.13261V17.4116C6.13261 17.1299 6.19891 16.9144 6.31493 16.7818C6.44753 16.6326 6.61327 16.5663 6.81217 16.5663C7.02764 16.5663 7.19338 16.6326 7.32598 16.7818C7.45858 16.9144 7.52488 17.1299 7.52488 17.4116V22.8481C7.52488 23.1298 7.45858 23.3453 7.32598 23.4945C7.19338 23.6437 7.02764 23.71 6.81217 23.71C6.5967 23.71 6.43095 23.6437 6.31493 23.4945C6.18233 23.3453 6.13261 23.1464 6.13261 22.8647V20.5442H3.11604V22.8647C3.11604 23.1464 3.04974 23.3619 2.91714 23.5111C2.78454 23.6602 2.6188 23.7265 2.40333 23.7265C2.18786 23.7265 2.02211 23.6602 1.90609 23.5111C1.77349 23.3619 1.72377 23.163 1.72377 22.8812V17.4448C1.72377 17.163 1.79007 16.9475 1.90609 16.8149C2.02211 16.6658 2.20443 16.5995 2.4199 16.5995C2.63537 16.5995 2.80112 16.6658 2.93372 16.8149C3.04974 16.9144 3.11604 17.1299 3.11604 17.4116Z" fill="white"/>
<path d="M13.5083 17.8425H11.9835V22.8481C11.9835 23.1298 11.9172 23.3453 11.7846 23.4945C11.652 23.6271 11.4862 23.71 11.2873 23.71C11.0884 23.71 10.9061 23.6437 10.7735 23.4945C10.6409 23.3453 10.5746 23.1464 10.5746 22.8481V17.8425H9.04977C8.81773 17.8425 8.63541 17.7928 8.51938 17.6768C8.40336 17.5774 8.35364 17.4282 8.35364 17.2624C8.35364 17.0801 8.41994 16.9475 8.53596 16.8315C8.65198 16.7321 8.8343 16.6823 9.06634 16.6823H13.5083C13.757 16.6823 13.9227 16.7321 14.0387 16.8481C14.1547 16.9475 14.221 17.0967 14.221 17.2624C14.221 17.4282 14.1547 17.5774 14.0387 17.6768C13.9227 17.7928 13.7404 17.8425 13.5083 17.8425Z" fill="white"/>
<path d="M17.3701 22.5497L16.2596 18.1575V22.9144C16.2596 23.1796 16.1933 23.3785 16.0773 23.5111C15.9613 23.6437 15.7956 23.71 15.6132 23.71C15.4309 23.71 15.2652 23.6437 15.1491 23.5111C15.0331 23.3785 14.9668 23.1796 14.9668 22.9144V17.4613C14.9668 17.163 15.0497 16.9641 15.1989 16.8481C15.348 16.7486 15.5635 16.6823 15.8287 16.6823H16.2596C16.5248 16.6823 16.7072 16.6989 16.8232 16.7486C16.9392 16.7983 17.0221 16.8812 17.0884 16.9972C17.1381 17.1133 17.2044 17.3122 17.2873 17.5939L18.2817 21.3729L19.2762 17.5939C19.3425 17.3122 19.4088 17.1133 19.4751 16.9972C19.5248 16.8812 19.6243 16.7983 19.7403 16.7486C19.8563 16.6989 20.0387 16.6823 20.3038 16.6823H20.7348C21 16.6823 21.2154 16.7321 21.3646 16.8481C21.5138 16.9475 21.5967 17.163 21.5967 17.4613V22.9144C21.5967 23.1796 21.5304 23.3785 21.4143 23.5111C21.2983 23.6437 21.1326 23.71 20.9337 23.71C20.7514 23.71 20.6022 23.6437 20.4696 23.5111C20.3536 23.3785 20.2873 23.1796 20.2873 22.9144V18.1575L19.1768 22.5497C19.1105 22.8315 19.0442 23.047 18.9945 23.1796C18.9447 23.3122 18.8619 23.4282 18.7458 23.5442C18.6298 23.6602 18.4475 23.71 18.232 23.71C18.0663 23.71 17.9337 23.6768 17.8177 23.6105C17.7016 23.5442 17.6188 23.4448 17.5525 23.3453C17.4862 23.2293 17.4364 23.1133 17.4033 22.9807C17.453 22.8315 17.4033 22.6823 17.3701 22.5497Z" fill="white"/>
<path d="M24.431 17.4116V22.4337H27.2653C27.4973 22.4337 27.6631 22.4834 27.7791 22.5995C27.8951 22.7155 27.9614 22.8481 27.9614 23.0138C27.9614 23.1796 27.8951 23.3122 27.7791 23.4282C27.6631 23.5276 27.4807 23.5939 27.2653 23.5939H23.9006C23.6023 23.5939 23.3702 23.5276 23.2376 23.3951C23.105 23.2625 23.0387 23.047 23.0387 22.7486V17.4448C23.0387 17.163 23.105 16.9475 23.2211 16.8149C23.3537 16.6658 23.5194 16.5995 23.7183 16.5995C23.9338 16.5995 24.0995 16.6658 24.2321 16.8149C24.3647 16.9144 24.431 17.1299 24.431 17.4116Z" fill="white"/>
<path d="M11.9337 36.3398V38.1133L5.61874 35.3785V33.8536L11.9337 31.1188V32.9088L7.5414 34.616L11.9337 36.3398Z" fill="white"/>
<path d="M15.8452 31.1022L14.0883 38.3288C14.022 38.5608 13.9723 38.7597 13.9392 38.8923C13.8894 39.0249 13.8231 39.1409 13.7403 39.2072C13.6574 39.2901 13.5248 39.3232 13.3425 39.3232C12.9115 39.3232 12.6961 39.1409 12.6961 38.7763C12.6961 38.6768 12.7458 38.4448 12.8287 38.047L14.569 30.8205C14.6684 30.4393 14.7513 30.1741 14.8342 30.0249C14.9171 29.8757 15.0828 29.8094 15.3314 29.8094C15.5469 29.8094 15.6961 29.8591 15.8121 29.9586C15.9281 30.058 15.9778 30.1906 15.9778 30.373C15.9778 30.5221 15.9281 30.7542 15.8452 31.1022Z" fill="white"/>
<path d="M23.0387 35.3785L16.7238 38.1298V36.3564L21.1326 34.6326L16.7238 32.9254V31.1519L23.0387 33.8702V35.3785Z" fill="white"/>
<rect x="40" y="16.25" width="80" height="14" rx="4" fill="#ECECEC"/>
<rect x="40" y="16.1423" width="60" height="14" rx="4" fill="#7F76E7" fill-opacity="0.5"/>
</svg>
