<svg width="121" height="46" viewBox="0 0 121 46" fill="none" xmlns="http://www.w3.org/2000/svg">
<path d="M30.6667 12.9704V42.5711C30.6667 44.3593 29.2257 45.8003 27.4375 45.8003H3.89582C2.10763 45.8003 0.666656 44.3593 0.666656 42.5711V3.82115C0.666656 2.03295 2.10763 0.59198 3.89582 0.59198H18.3055L30.6667 12.9704Z" fill="#EFC52F"/>
<path d="M30.6666 12.9704H21.5347C19.7465 12.9704 18.3055 11.5295 18.3055 9.74128V0.59198L30.6666 12.9704Z" fill="#E4B807"/>
<path d="M14.2433 17.4149V21.026C14.2433 21.3385 14.2259 21.599 14.2085 21.8246C14.1738 22.0503 14.1217 22.2587 14.0349 22.4844C13.8787 22.8663 13.6183 23.1615 13.2537 23.3698C12.8891 23.5781 12.4551 23.6823 11.9342 23.6823C11.4655 23.6823 11.0835 23.6128 10.771 23.4566C10.4585 23.3177 10.2155 23.0746 10.0245 22.7448C9.92034 22.5712 9.85089 22.3628 9.78145 22.1371C9.712 21.9115 9.69464 21.6858 9.69464 21.4774C9.69464 21.2517 9.76409 21.0955 9.88561 20.974C10.0071 20.8524 10.1634 20.8003 10.3544 20.8003C10.5453 20.8003 10.6842 20.8524 10.771 20.9566C10.8578 21.0608 10.9446 21.2344 10.9794 21.4601C11.0314 21.7031 11.0835 21.8941 11.1356 22.033C11.1877 22.1719 11.2745 22.2934 11.396 22.3976C11.5176 22.5017 11.7085 22.5538 11.9342 22.5538C12.5592 22.5538 12.8544 22.1024 12.8544 21.1996V17.3802C12.8544 17.1024 12.9238 16.8941 13.0453 16.7378C13.1669 16.599 13.3405 16.5295 13.5488 16.5295C13.7571 16.5295 13.9308 16.599 14.0696 16.7378C14.1738 16.9288 14.2433 17.1371 14.2433 17.4149Z" fill="white"/>
<path d="M20.9965 21.512C20.9965 21.9286 20.8923 22.3106 20.6666 22.6404C20.4583 22.9703 20.1458 23.2307 19.7291 23.4217C19.3124 23.6126 18.8263 23.6994 18.2534 23.6994C17.5763 23.6994 17.0208 23.5779 16.5694 23.3175C16.2569 23.1265 15.9965 22.8835 15.8055 22.571C15.6145 22.2585 15.5103 21.9633 15.5103 21.6682C15.5103 21.4946 15.5624 21.3557 15.684 21.2342C15.8055 21.1126 15.9444 21.0606 16.1353 21.0606C16.2742 21.0606 16.4131 21.1126 16.5173 21.1995C16.6215 21.2863 16.7083 21.4251 16.7777 21.6161C16.8645 21.8418 16.9687 22.0154 17.0555 22.1717C17.1597 22.3106 17.2985 22.4321 17.4895 22.5363C17.6805 22.6404 17.9235 22.6751 18.2187 22.6751C18.6353 22.6751 18.9652 22.571 19.2256 22.38C19.486 22.189 19.6076 21.946 19.6076 21.6508C19.6076 21.4251 19.5381 21.2342 19.3992 21.0953C19.2603 20.9564 19.0867 20.8522 18.861 20.7654C18.6353 20.696 18.3402 20.6092 17.9756 20.5224C17.4722 20.4008 17.0728 20.2793 16.7256 20.1231C16.3958 19.9668 16.1353 19.7585 15.927 19.4807C15.736 19.2203 15.6319 18.8731 15.6319 18.4738C15.6319 18.0918 15.736 17.762 15.9444 17.4668C16.1527 17.1717 16.4478 16.946 16.8472 16.7897C17.2465 16.6335 17.6978 16.5467 18.236 16.5467C18.6527 16.5467 19.0173 16.5988 19.3298 16.7029C19.6423 16.8071 19.9027 16.946 20.0937 17.1196C20.302 17.2932 20.4409 17.4842 20.5451 17.6751C20.6319 17.8661 20.684 18.0571 20.684 18.2307C20.684 18.4043 20.6319 18.5432 20.5103 18.6821C20.3888 18.821 20.2499 18.8904 20.0763 18.8904C19.9201 18.8904 19.7985 18.8557 19.7117 18.7689C19.6249 18.6821 19.5381 18.5606 19.434 18.3696C19.3124 18.1092 19.1562 17.9008 18.9826 17.762C18.809 17.6231 18.5312 17.5363 18.1319 17.5363C17.7673 17.5363 17.4721 17.6231 17.2638 17.7793C17.0381 17.9356 16.934 18.1265 16.934 18.3522C16.934 18.4911 16.9687 18.6126 17.0381 18.7168C17.1076 18.821 17.2117 18.9078 17.3506 18.9772C17.4895 19.0467 17.611 19.0988 17.7499 19.1508C17.8888 19.1856 18.1145 19.255 18.4097 19.3245C18.7916 19.4113 19.1562 19.5154 19.4687 19.6196C19.7812 19.7238 20.059 19.8626 20.2673 20.0189C20.493 20.1751 20.6666 20.3661 20.7881 20.6092C20.927 20.8696 20.9965 21.1647 20.9965 21.512Z" fill="white"/>
<path d="M7.92363 29.9147H8.32293V29.3938C8.32293 28.8556 8.39238 28.439 8.53127 28.1265C8.67016 27.814 8.89585 27.5883 9.22571 27.432C9.55557 27.2931 9.9896 27.2237 10.5625 27.2237C11.5695 27.2237 12.0556 27.4667 12.0556 27.9529C12.0556 28.1091 12.0035 28.248 11.8993 28.3522C11.7952 28.4563 11.6736 28.5258 11.5347 28.5258C11.4653 28.5258 11.3611 28.5084 11.1875 28.4911C11.0313 28.4737 10.8924 28.4563 10.7708 28.4563C10.4583 28.4563 10.2674 28.5431 10.1806 28.7341C10.0938 28.9077 10.0417 29.1681 10.0417 29.5154V29.9147H10.4583C11.1181 29.9147 11.4306 30.1056 11.4306 30.5049C11.4306 30.7827 11.3438 30.9563 11.1702 31.0431C10.9965 31.1126 10.7535 31.1473 10.4583 31.1473H10.0417V35.6786C10.0417 36.0084 9.95488 36.2688 9.79863 36.4598C9.64238 36.6334 9.43404 36.7202 9.17363 36.7202C8.93057 36.7202 8.72224 36.6334 8.56599 36.4598C8.40974 36.2862 8.32293 36.0258 8.32293 35.6786V31.1473H7.85418C7.59377 31.1473 7.40279 31.0952 7.26391 30.9737C7.12502 30.8522 7.05557 30.7133 7.05557 30.5223C7.05557 30.123 7.35071 29.9147 7.92363 29.9147Z" fill="white"/>
<path d="M14.4167 33.2483C14.7118 33.4392 14.9375 33.6302 15.1111 33.8733C15.2848 34.099 15.3889 34.3941 15.4584 34.7413C15.5278 35.0885 15.5625 35.5399 15.5625 36.0955C15.5625 36.5122 15.5799 36.8073 15.5973 37.0156C15.6146 37.2066 15.6493 37.3629 15.7014 37.467C15.7535 37.5712 15.8229 37.6406 15.9098 37.6753C15.9966 37.7101 16.1181 37.7448 16.3091 37.7622C16.4653 37.7795 16.6042 37.8663 16.7084 37.9879C16.8125 38.1267 16.8646 38.3004 16.8646 38.5087C16.8646 39.0122 16.5521 39.2726 15.9445 39.2726C15.5625 39.2726 15.2327 39.1858 14.9202 39.0295C14.625 38.8733 14.382 38.6476 14.2257 38.3524C14.0695 38.0573 13.9827 37.7274 13.9827 37.3455C13.9653 36.7031 13.9653 36.1997 13.9479 35.8177C13.9306 35.4358 13.9132 35.1927 13.8959 35.0712C13.8264 34.7934 13.7396 34.5851 13.6181 34.4462C13.4966 34.3073 13.3403 34.1684 13.132 34.0469C12.941 33.9254 12.7848 33.8212 12.7153 33.717C12.6285 33.6129 12.5938 33.4566 12.5938 33.2483C12.5938 32.9358 12.7153 32.7101 12.9584 32.5538C13.2535 32.3629 13.4792 32.2066 13.6007 32.0677C13.7223 31.9288 13.8264 31.7726 13.8785 31.5642C13.9306 31.3559 13.9653 31.1302 13.9653 30.8872C13.9653 30.6441 13.9827 30.0538 14 29.1163C14.0174 28.5434 14.191 28.0747 14.5556 27.7274C14.9028 27.3802 15.3716 27.2066 15.9618 27.2066C16.5695 27.2066 16.882 27.4497 16.882 27.9531C16.882 28.1788 16.8299 28.3524 16.7257 28.4913C16.6216 28.6129 16.4827 28.6997 16.3264 28.717C16.0834 28.7517 15.9098 28.8038 15.8229 28.8733C15.7188 28.9427 15.6667 29.0642 15.632 29.2552C15.5973 29.4462 15.5799 29.8108 15.5799 30.3663C15.5799 30.9045 15.5452 31.3559 15.4757 31.6858C15.4236 32.033 15.3021 32.3281 15.1459 32.5712C14.9723 32.8316 14.7292 33.0399 14.4167 33.2483Z" fill="white"/>
<path d="M23.0971 33.2483C22.8714 33.1094 22.6805 32.9531 22.5416 32.7969C22.4027 32.6406 22.2812 32.4497 22.1944 32.2413C22.1075 32.0156 22.0381 31.7552 22.0034 31.4601C21.9687 31.1649 21.9513 30.8004 21.9513 30.3837C21.9513 29.9844 21.9513 29.6892 21.9339 29.4635C21.9166 29.2552 21.8818 29.099 21.8298 28.9948C21.7777 28.8906 21.7082 28.8385 21.6214 28.8038C21.5346 28.7691 21.3957 28.7344 21.2048 28.717C21.0485 28.6997 20.927 28.6129 20.8055 28.4913C20.7013 28.3698 20.6492 28.1788 20.6492 27.9531C20.6492 27.4497 20.9443 27.2066 21.552 27.2066C21.9339 27.2066 22.2812 27.2934 22.5763 27.4497C22.8714 27.6059 23.0971 27.8316 23.2707 28.1267C23.4443 28.4219 23.5312 28.7517 23.5312 29.1163C23.5485 30.5052 23.5832 31.2691 23.618 31.408C23.6874 31.6858 23.7916 31.8941 23.9131 32.033C24.0346 32.1719 24.1909 32.3108 24.3818 32.4149C24.5728 32.5191 24.6943 32.6406 24.7985 32.7448C24.8853 32.849 24.9374 33.0226 24.9374 33.2483C24.9374 33.5608 24.8159 33.7865 24.5728 33.9427C24.2777 34.1163 24.0693 34.2726 23.9305 34.4115C23.7916 34.5504 23.7048 34.724 23.6527 34.9149C23.6006 35.1233 23.5659 35.4184 23.5659 35.8351C23.5485 36.2344 23.5485 36.7552 23.5312 37.3629C23.5138 37.9358 23.3402 38.4045 22.9756 38.7517C22.611 39.099 22.1423 39.2726 21.552 39.2726C21.2568 39.2726 21.0312 39.2031 20.8749 39.0816C20.7187 38.9601 20.6319 38.7691 20.6319 38.526C20.6319 38.3872 20.6492 38.2656 20.7013 38.1441C20.7534 38.0226 20.8228 37.9358 20.8923 37.8837C20.9791 37.8142 21.0659 37.7795 21.17 37.7795C21.361 37.7622 21.4999 37.7274 21.5867 37.6927C21.6735 37.658 21.743 37.5885 21.795 37.4844C21.8471 37.3802 21.8819 37.224 21.8819 37.0156C21.8992 36.8073 21.8992 36.5122 21.8992 36.1302C21.8992 35.5573 21.9339 35.1059 22.0034 34.776C22.0555 34.4462 22.177 34.1684 22.3332 33.9427C22.5416 33.6649 22.7846 33.4392 23.0971 33.2483Z" fill="white"/>
<rect x="40.6667" y="16.3346" width="80" height="14" rx="4" fill="#ECECEC"/>
<rect x="41" y="16.0577" width="20" height="14" rx="4" fill="#7F76E7" fill-opacity="0.5"/>
</svg>
