<svg width="57" height="33" viewBox="0 0 57 33" fill="none" xmlns="http://www.w3.org/2000/svg">
<g clip-path="url(#clip0_119_283)">
<path d="M13.9427 11.4663V22.4456H17.6092H21.2758L21.2823 18.8499L21.2922 15.2575L22.2458 15.9772L23.1995 16.697L23.2093 19.573L23.2159 22.4456L27.5664 22.4522C32.0518 22.4619 32.6502 22.4522 33.2619 22.3642C34.7186 22.1525 36.2017 21.576 37.3888 20.7585C38.1517 20.2309 38.9705 19.4818 39.5098 18.8141C41.5519 16.2867 42.3148 12.9873 41.565 9.9062C40.9435 7.35272 39.3815 5.13796 37.1915 3.70813C36.205 3.06651 35.0869 2.60401 33.8209 2.32391L33.4263 2.23597L28.3227 2.22946L23.2159 2.21969V4.84483C23.2159 6.54824 23.206 7.46345 23.183 7.45694C23.1666 7.45043 21.0916 5.88707 18.576 3.97847C16.0604 2.06986 13.9887 0.503248 13.9723 0.49999C13.9558 0.493477 13.9427 4.87088 13.9427 11.4663ZM33.3145 4.09246C34.255 4.26508 35.1757 4.61684 35.9879 5.1119C38.1353 6.4147 39.5887 8.6718 39.9406 11.2416C40.0096 11.7301 40.0162 12.8473 39.957 13.2609C39.6643 15.3031 38.8357 16.9804 37.4513 18.3321C37.0041 18.7718 36.7508 18.9737 36.205 19.3352C35.0573 20.0974 33.7814 20.5208 32.3576 20.6217C32.0781 20.6413 31.7525 20.6478 31.6308 20.6348L31.4105 20.6152L25.429 16.0945L19.4507 11.5738L19.4408 16.0978L19.4343 20.6217H18.7602H18.086V14.7396V8.86071L18.4741 9.15384C18.6845 9.31343 21.7953 11.6682 25.3862 14.3813L31.9136 19.3157L32.1932 19.2994C34.6726 19.1463 36.7804 17.7263 37.8985 15.4594C38.2569 14.7331 38.4279 14.2054 38.5759 13.3684C38.6351 13.0329 38.6482 12.8277 38.6482 12.3164C38.6482 11.6389 38.6186 11.3491 38.4871 10.753C38.0202 8.68157 36.6259 6.88697 34.7745 5.97501C34.3931 5.7861 34.0906 5.66885 33.7321 5.57439C33.0679 5.39526 33.206 5.40177 29.7696 5.38875L26.57 5.37572L26.5635 7.72076L26.5536 10.0658L25.8071 9.50559L25.0574 8.94539V6.49287V4.04361H29.0495C32.5121 4.04361 33.0777 4.05012 33.3145 4.09246ZM21.1936 8.25816C24.1235 10.4794 27.8755 13.3228 29.5296 14.5767C32.1142 16.5375 32.5483 16.8566 32.6338 16.8501C32.8048 16.8371 33.2454 16.7133 33.5315 16.5993C35.0146 16.0066 36.0734 14.6321 36.3365 12.9613C36.3891 12.6291 36.3595 11.6682 36.2872 11.3393C36.0307 10.1863 35.3796 9.17338 34.4621 8.50569C34.1234 8.25816 33.4921 7.94875 33.1008 7.83801L32.8114 7.75658H30.9896H29.1679L29.1613 9.88666L29.1514 12.0167L28.3227 11.3947L27.4908 10.7693V8.59689V6.42122H30.1873C33.1402 6.42122 33.0481 6.4147 33.6828 6.61989C34.0971 6.75017 34.8403 7.12473 35.2185 7.38854C35.6164 7.66864 36.3201 8.36564 36.6062 8.76625C36.889 9.16035 37.2868 9.94854 37.4348 10.411C37.6288 11.0201 37.6913 11.4109 37.7078 12.1079C37.7308 12.945 37.665 13.44 37.4315 14.1566C36.8133 16.0652 35.2382 17.5699 33.3342 18.0682C33.2224 18.0976 32.9166 18.1562 32.6568 18.1953L32.18 18.2702L24.6661 12.5704L17.1489 6.87068L17.139 13.7462L17.1324 20.6217H16.4583H15.7842V12.3946C15.7842 5.82518 15.794 4.17389 15.8269 4.19343C15.8467 4.20646 18.2636 6.03689 21.1936 8.25816ZM32.9495 9.73033C34.278 10.3654 34.883 11.9646 34.3306 13.3879C34.1563 13.8309 33.8505 14.2478 33.4986 14.5246C33.1961 14.7624 32.9922 14.8699 32.9166 14.8373C32.8837 14.821 32.4398 14.4921 31.9334 14.1077L31.0093 13.4075V11.4924V9.57725L31.8413 9.58702L32.67 9.59679L32.9495 9.73033ZM25.9387 18.7652L26.5668 19.2375L26.57 19.928V20.6217H25.8137H25.0574V19.3645V18.1073L25.1823 18.2018C25.2514 18.2506 25.5934 18.5047 25.9387 18.7652ZM27.9216 20.2667C28.1353 20.4328 28.3129 20.5794 28.3129 20.5924C28.3129 20.6087 28.1287 20.6217 27.9018 20.6217H27.4908V20.296C27.4908 20.1169 27.5007 19.9703 27.5105 19.9703C27.5204 19.9703 27.7045 20.1039 27.9216 20.2667Z" fill="#93765A"/>
<path d="M0 29.1779V32.5423H0.0920745C0.1414 32.5423 0.4242 32.5195 0.723442 32.4935C1.02268 32.4674 1.27589 32.4446 1.29233 32.4446C1.30548 32.4446 1.31535 31.6271 1.31535 30.6305V28.8131L3.35414 30.8324L5.39293 32.8518V29.4612V26.0707L5.23838 26.0837C5.14959 26.0935 4.86679 26.1163 4.60372 26.1358L4.12691 26.1749L4.11704 28.0216C4.11376 29.0411 4.10389 29.8716 4.09731 29.8716C4.09074 29.8716 3.1667 28.9597 2.04208 27.8425L0 25.8167V29.1779Z" fill="#93765A"/>
<path d="M52.9264 26.0186C52.8738 26.1228 52.1339 27.5982 51.2756 29.2984C50.4206 30.9985 49.7235 32.3925 49.7301 32.399C49.74 32.4121 50.9534 32.6368 51.006 32.6401C51.0158 32.6401 51.2 32.2655 51.4137 31.8095L51.8018 30.979H53.0053H54.2089L54.5837 31.7965C54.7909 32.2427 54.9718 32.6173 54.9849 32.6238C54.9948 32.6335 55.3006 32.5847 55.6623 32.5196L56.32 32.4023L54.6758 29.1258C53.7715 27.3246 53.0283 25.846 53.025 25.8394C53.0185 25.8329 52.9757 25.9144 52.9264 26.0186ZM53.3835 29.1355C53.5775 29.5459 53.7287 29.8879 53.7222 29.8944C53.7156 29.9009 53.39 29.9009 53.002 29.8977L52.2917 29.8879L52.5548 29.3342C52.6995 29.028 52.8606 28.6861 52.9132 28.5721C52.9658 28.4581 53.0152 28.3701 53.0217 28.3766C53.0283 28.3832 53.1927 28.7251 53.3835 29.1355Z" fill="#93765A"/>
<path d="M18.9969 29.129C18.0992 30.9236 17.3692 32.3958 17.3758 32.4023C17.3922 32.4218 18.6484 32.6466 18.6615 32.6335C18.6648 32.627 18.8424 32.2525 19.0561 31.7997L19.4442 30.979L20.6444 30.9855L21.848 30.9953L22.2228 31.7932C22.4267 32.2329 22.6043 32.601 22.6174 32.614C22.6339 32.6303 22.9397 32.5847 23.3047 32.5195L23.9657 32.399L22.3182 29.1323C21.4106 27.3344 20.6609 25.8655 20.651 25.8655C20.6411 25.8655 19.898 27.3344 18.9969 29.129ZM21.0259 29.1355C21.2166 29.5459 21.3679 29.8879 21.3613 29.8944C21.3547 29.9009 21.0324 29.9009 20.6411 29.8977L19.9276 29.8879L20.1446 29.4319C20.263 29.1811 20.4274 28.8391 20.5063 28.6698C20.5852 28.5004 20.6576 28.3701 20.6641 28.3766C20.6707 28.3832 20.8319 28.7251 21.0259 29.1355Z" fill="#93765A"/>
<path d="M33.4263 29.1225C32.5253 30.9138 31.7953 32.386 31.8052 32.3958C31.8413 32.4316 33.0613 32.64 33.0843 32.6172C33.0975 32.601 33.2783 32.2329 33.4855 31.7932L33.8571 30.9953H35.0672H36.2741L36.6522 31.8095C36.8594 32.2557 37.037 32.627 37.0402 32.6335C37.0501 32.6433 38.3523 32.4121 38.3687 32.399C38.3786 32.386 35.1067 25.8655 35.087 25.8655C35.0771 25.8655 34.3306 27.3311 33.4263 29.1225ZM35.4454 29.1323C35.6295 29.5264 35.7775 29.8586 35.7775 29.8749C35.7775 29.8911 35.4684 29.9042 35.0672 29.9042C34.426 29.9042 34.3569 29.8977 34.3767 29.8521C34.4786 29.5882 35.0738 28.3799 35.0935 28.3994C35.1034 28.4125 35.2645 28.7414 35.4454 29.1323Z" fill="#93765A"/>
<path d="M9.10223 26.0772C7.97432 26.2531 6.94506 27.0315 6.51428 28.0379C6.30054 28.5297 6.26436 28.7251 6.26765 29.3505C6.26765 29.8749 6.27423 29.9433 6.35644 30.2136C6.71487 31.3926 7.60273 32.2264 8.83258 32.5456C9.24692 32.6531 10.0723 32.6563 10.4932 32.5521C11.1246 32.3925 11.6672 32.0929 12.121 31.6467C12.5484 31.2265 12.8378 30.738 12.9957 30.1647C13.0614 29.9237 13.0713 29.813 13.0713 29.3342C13.0713 28.8978 13.0581 28.7349 13.0088 28.5688C12.9003 28.178 12.7556 27.8555 12.5616 27.5624C11.8217 26.4452 10.4768 25.8655 9.10223 26.0772ZM10.1775 27.3149C11.3745 27.6145 12.0782 28.8489 11.6968 29.9726C11.5718 30.3341 11.46 30.5132 11.1673 30.8031C10.7464 31.2233 10.2729 31.4154 9.66783 31.4154C9.06606 31.4154 8.59911 31.2233 8.16833 30.7998C7.50079 30.1419 7.35282 29.2593 7.76715 28.4092C8.01378 27.8946 8.55307 27.4712 9.14169 27.3181C9.38503 27.253 9.9309 27.253 10.1775 27.3149Z" fill="#93765A"/>
<path d="M13.8276 26.1163C13.4856 26.1586 13.2028 26.1977 13.1962 26.201C13.193 26.2075 13.8112 27.7155 14.5741 29.5557C15.337 31.3959 15.9716 32.8908 15.9848 32.8778C16.021 32.842 18.7503 26.2205 18.7371 26.2075C18.724 26.1945 17.4481 26.0283 17.4415 26.0381C17.4382 26.0414 17.1226 26.8882 16.7378 27.9174C16.3531 28.9466 16.0275 29.8032 16.0144 29.8162C16.0012 29.8293 15.6658 28.9857 15.2679 27.9435C14.824 26.7807 14.5247 26.0414 14.4951 26.0414C14.4721 26.0381 14.1729 26.0707 13.8276 26.1163Z" fill="#93765A"/>
<path d="M41.2197 26.0609C40.9369 26.1065 40.5029 26.2433 40.2332 26.3768C39.5361 26.7253 39.0396 27.2269 38.7041 27.9239C38.474 28.3994 38.4279 28.6274 38.4279 29.3179C38.4246 29.8521 38.4345 29.953 38.5003 30.1973C38.8225 31.3601 39.7005 32.2232 40.9008 32.5489C41.1112 32.6075 41.2461 32.6173 41.713 32.6205C42.2161 32.6205 42.3049 32.6107 42.5976 32.5326C42.7784 32.4837 42.9363 32.4349 42.9494 32.4218C42.9757 32.3958 43.1829 30.9757 43.1665 30.9562C43.1599 30.9529 43.104 30.9855 43.0415 31.0311C42.8771 31.1516 42.6666 31.2558 42.4036 31.3373C42.0583 31.4447 41.5453 31.4415 41.1869 31.3275C40.1214 30.9822 39.5197 29.9889 39.7367 28.9303C39.8781 28.2496 40.2694 27.748 40.8909 27.4582C41.2329 27.2986 41.4828 27.253 41.9037 27.2725C42.2983 27.2921 42.6042 27.3865 42.933 27.5885L43.1467 27.722L43.1303 27.6145C43.1204 27.5591 43.0744 27.2334 43.0251 26.8915C42.979 26.5527 42.9396 26.2726 42.9363 26.2694C42.6206 26.1065 41.6834 25.9925 41.2197 26.0609Z" fill="#93765A"/>
<path d="M44.689 26.1228L44.0807 26.1749L44.0708 29.357L44.0642 32.5423H44.1366C44.1793 32.5423 44.4555 32.5195 44.7548 32.4935C45.054 32.4674 45.3072 32.4446 45.3237 32.4446C45.3368 32.4446 45.3467 31.8584 45.3467 31.1418V29.839H46.6785H48.0103V31.1907V32.5423H48.0859C48.1254 32.5423 48.4016 32.5195 48.7008 32.4935C49.0001 32.4674 49.2533 32.4446 49.2697 32.4446C49.2829 32.4446 49.2927 31.0116 49.2927 29.256V26.0707L49.1382 26.0837C49.0494 26.0935 48.7666 26.1163 48.5035 26.1358L48.0267 26.1749L48.0103 27.4126L47.9938 28.6502H46.6785H45.3631L45.3533 27.3539C45.35 26.6439 45.3335 26.0642 45.3204 26.0642C45.3072 26.0674 45.0244 26.0935 44.689 26.1228Z" fill="#93765A"/>
<path d="M26.5701 29.3538V32.5163L27.6815 32.5C28.2899 32.4902 28.8851 32.4674 29.0035 32.4479C30.3517 32.2101 31.2757 31.3763 31.5914 30.1061C31.6703 29.7902 31.6703 29.002 31.5914 28.634C31.2955 27.2758 30.332 26.455 28.7733 26.2401C28.5168 26.2075 28.1386 26.1912 27.4908 26.1912H26.5701V29.3538ZM29.0232 27.4745C29.842 27.735 30.3517 28.4516 30.3517 29.3407C30.3517 29.7316 30.3089 29.927 30.1478 30.2625C30.0426 30.4774 29.9637 30.5882 29.7795 30.7673C29.3882 31.1516 29.0133 31.2884 28.2734 31.3275L27.8525 31.347V29.3505V27.354L28.3063 27.3702C28.6713 27.3833 28.8062 27.4028 29.0232 27.4745Z" fill="#93765A"/>
</g>
<defs>
<clipPath id="clip0_119_283">
<rect width="56.32" height="32" fill="white" transform="translate(0 0.5)"/>
</clipPath>
</defs>
</svg>
