<svg width="30" height="27" viewBox="0 0 30 27" fill="none" xmlns="http://www.w3.org/2000/svg">
<path fill-rule="evenodd" clip-rule="evenodd" d="M0.661499 0.971853C0.661499 0.818525 0.990335 0.703467 1.18201 0.703467C2.67718 0.626803 4.87256 0.588409 7.1727 0.588409C13.6137 0.588409 16.1223 4.11642 16.1223 8.64156C16.1223 14.5471 11.8403 17.078 6.58788 17.078C6.1071 17.078 5.79721 17.0667 5.51544 17.0561C5.28036 17.0475 5.06485 17.0395 4.78588 17.0395V25.9687C4.78588 26.1607 4.70924 26.2375 4.51756 26.2375H0.929824C0.738145 26.2375 0.661499 26.1607 0.661499 25.9687V0.971853ZM4.78588 13.3199C5.32266 13.3581 5.7444 13.3581 6.66453 13.3581C9.38665 13.3581 11.9433 12.3993 11.9433 8.71798C11.9433 5.76488 10.1151 4.26963 7.00962 4.26963C6.08949 4.26963 5.20763 4.30766 4.78588 4.34629V13.3198V13.3199ZM22.3319 12.2462C22.3319 11.4792 22.9453 10.5589 24.7856 10.5589C26.2811 10.5589 27.8038 10.9423 28.8387 11.5559C29.0688 11.6327 29.1838 11.5174 29.1838 11.3259V8.14233C29.1838 7.98888 29.1454 7.7974 28.9537 7.6821C28.1869 7.33717 26.7793 7.03039 24.7856 7.03039C20.7218 7.03039 18.3832 9.52326 18.3832 12.5144C18.3832 15.1986 19.7633 16.8092 23.0606 18.3817C25.3993 19.6086 25.936 20.3374 25.936 21.1811C25.936 22.2165 25.1692 22.9835 23.3289 22.9835C21.7951 22.9835 20.1043 22.5614 18.6474 21.6029C18.4939 21.4881 18.379 21.5648 18.379 21.7949V25.2078C18.379 25.3996 18.4173 25.5146 18.5707 25.5913C19.5675 26.1663 21.297 26.5884 23.3289 26.5884C27.1629 26.5884 30 24.5943 30 20.8743C30 18.3819 28.8498 16.6946 25.2076 14.9306C22.7537 13.6648 22.3319 13.0899 22.3319 12.2462Z" fill="#158DAF"/>
</svg>
